<svg width="45" height="44" viewBox="0 0 45 44" fill="none" xmlns="http://www.w3.org/2000/svg">
<mask id="path-1-inside-1" fill="white">
<path fill-rule="evenodd" clip-rule="evenodd" d="M14.2851 2.44704C12.065 -0.47609 7.78092 -0.854075 5.15644 1.71223L1.79636 4.99782C-0.0328514 6.78649 -0.537689 9.54842 0.61885 11.8305C8.55816 27.4961 16.1839 34.9889 30.9712 42.8763C33.2282 44.0801 36.0011 43.6379 37.8301 41.8494L41.2312 38.5237C43.8417 35.971 43.5762 31.7024 40.7288 29.4169C39.3328 28.2963 38.0028 27.2051 36.7284 26.1329C35.0551 24.7249 32.5527 24.8711 31.0846 26.492V26.492C29.6016 28.1294 27.0651 28.2621 25.4278 26.7791L17.9967 20.0484C16.3593 18.5654 16.2342 16.0358 17.7173 14.3984L18.6248 13.3965C19.9822 11.8978 20.0036 9.62516 18.7181 8.06441C17.2574 6.29105 15.7914 4.43016 14.2851 2.44704Z"/>
</mask>
<path d="M5.15644 1.71223L7.25385 3.85719L5.15644 1.71223ZM14.2851 2.44704L16.6742 0.632519L16.6742 0.632519L14.2851 2.44704ZM1.79636 4.99782L-0.301049 2.85286L-0.301049 2.85286L1.79636 4.99782ZM0.61885 11.8305L-2.05712 13.1867L0.61885 11.8305ZM30.9712 42.8763L29.5593 45.5233L29.5593 45.5233L30.9712 42.8763ZM37.8301 41.8494L35.7327 39.7045L35.7327 39.7045L37.8301 41.8494ZM41.2312 38.5237L39.1338 36.3787L39.1338 36.3787L41.2312 38.5237ZM40.7288 29.4169L42.6067 27.0773L42.6067 27.0773L40.7288 29.4169ZM18.6248 13.3965L16.4013 11.3825L18.6248 13.3965ZM17.9967 20.0484L20.0106 17.8249L17.9967 20.0484ZM25.4278 26.7791L27.4417 24.5556L25.4278 26.7791ZM7.25385 3.85719C8.54807 2.59166 10.7336 2.73096 11.8961 4.26156L16.6742 0.632519C13.3964 -3.68314 7.01377 -4.29981 3.05903 -0.432733L7.25385 3.85719ZM3.89378 7.14278L7.25385 3.85719L3.05903 -0.432733L-0.301049 2.85286L3.89378 7.14278ZM3.29482 10.4743C2.75218 9.40359 2.96593 8.05006 3.89378 7.14278L-0.301049 2.85286C-3.03164 5.52292 -3.82756 9.69325 -2.05712 13.1867L3.29482 10.4743ZM32.3831 40.2293C25.1499 36.3712 19.8271 32.6936 15.3638 28.1645C10.901 23.6358 7.17548 18.1315 3.29482 10.4743L-2.05712 13.1867C2.00153 21.1951 6.05857 27.27 11.0902 32.376C16.1215 37.4815 22.0053 41.494 29.5593 45.5233L32.3831 40.2293ZM35.7327 39.7045C34.8059 40.6107 33.4457 40.7961 32.3831 40.2293L29.5593 45.5233C33.0108 47.3642 37.1963 46.665 39.9275 43.9944L35.7327 39.7045ZM39.1338 36.3787L35.7327 39.7045L39.9275 43.9944L43.3286 40.6686L39.1338 36.3787ZM38.8509 31.7564C40.3347 32.9475 40.4214 35.1197 39.1338 36.3787L43.3286 40.6686C47.2621 36.8224 46.8176 30.4573 42.6067 27.0773L38.8509 31.7564ZM34.797 28.4284C36.0909 29.5171 37.4389 30.623 38.8509 31.7564L42.6067 27.0773C41.2267 25.9697 39.9147 24.8931 38.6599 23.8373L34.797 28.4284ZM27.4417 24.5556L20.0106 17.8249L15.9827 22.2719L23.4138 29.0026L27.4417 24.5556ZM19.9408 16.4124L20.8483 15.4104L16.4013 11.3825L15.4938 12.3845L19.9408 16.4124ZM11.8961 4.26156C13.4227 6.27148 14.9133 8.16374 16.4024 9.9717L21.0337 6.15712C19.6016 4.41836 18.16 2.58884 16.6742 0.632519L11.8961 4.26156ZM20.8483 15.4104C23.2347 12.7758 23.2371 8.83231 21.0337 6.15712L16.4024 9.9717C16.77 10.418 16.7297 11.0199 16.4013 11.3825L20.8483 15.4104ZM20.0106 17.8249C19.6013 17.4541 19.57 16.8217 19.9408 16.4124L15.4938 12.3845C12.8985 15.2499 13.1174 19.6766 15.9827 22.2719L20.0106 17.8249ZM28.8611 24.4781C28.4836 24.8949 27.8436 24.9196 27.4417 24.5556L23.4138 29.0026C26.2866 31.6046 30.7196 31.3639 33.3081 28.506L28.8611 24.4781ZM38.6599 23.8373C35.7756 21.4105 31.4341 21.6373 28.8611 24.4781L33.3081 28.506C33.6714 28.1049 34.3345 28.0392 34.797 28.4284L38.6599 23.8373Z" fill="#048904" mask="url(#path-1-inside-1)"/>
<path d="M22.9594 9.06765C23.1913 8.81067 23.5554 8.71286 23.8849 8.81905C32.3407 11.5445 35.1993 14.4309 37.2974 20.9093C37.3904 21.1966 37.3212 21.5129 37.1189 21.7371V21.7371C36.6731 22.231 35.8564 22.0482 35.6374 21.42C33.5534 15.4417 30.6233 12.7497 23.3776 10.5326C22.7481 10.34 22.5183 9.5564 22.9594 9.06765V9.06765Z" fill="#048904"/>
<path d="M22.3585 4.56606C22.5026 3.98967 23.1081 3.6565 23.6711 3.84642C35.5822 7.86483 38.848 11.6173 41.897 20.3374C42.0328 20.726 41.8868 21.1588 41.5443 21.3872V21.3872C41.0682 21.7046 40.4205 21.5066 40.1952 20.9805C36.2581 11.7852 33.3684 9.16616 23.044 5.79585C22.5296 5.62791 22.2273 5.09107 22.3585 4.56606V4.56606Z" fill="#048904"/>
</svg>
