<svg width="587" height="441" viewBox="0 0 587 441" fill="none" xmlns="http://www.w3.org/2000/svg">
<path d="M431.913 217C431.913 333.489 336.752 428 219.269 428C101.786 428 6.62494 333.489 6.62494 217C6.62494 100.511 101.786 6 219.269 6C336.752 6 431.913 100.511 431.913 217Z" stroke="#1AE02E" stroke-width="12"/>
<path d="M431.913 217C431.913 333.489 336.752 428 219.269 428C101.786 428 6.62494 333.489 6.62494 217C6.62494 100.511 101.786 6 219.269 6C336.752 6 431.913 100.511 431.913 217Z" stroke="url(#paint0_linear)" stroke-width="12"/>
<path d="M414.262 216.456C414.262 323.48 326.769 410.324 218.737 410.324C110.706 410.324 23.2134 323.48 23.2134 216.456C23.2134 109.433 110.706 22.5885 218.737 22.5885C326.769 22.5885 414.262 109.433 414.262 216.456Z" stroke="#628FC5" stroke-width="12"/>
<path d="M414.262 216.456C414.262 323.48 326.769 410.324 218.737 410.324C110.706 410.324 23.2134 323.48 23.2134 216.456C23.2134 109.433 110.706 22.5885 218.737 22.5885C326.769 22.5885 414.262 109.433 414.262 216.456Z" stroke="url(#paint1_linear)" stroke-width="12"/>
<g filter="url(#filter0_i)">
<path d="M12.7175 146.311C-45.879 322.938 110.348 440.475 229.68 433.452C241.244 169.974 20.8622 247.891 12.7175 146.311Z" fill="#07A216"/>
<path d="M12.7175 146.311C-45.879 322.938 110.348 440.475 229.68 433.452C241.244 169.974 20.8622 247.891 12.7175 146.311Z" fill="url(#paint2_linear)"/>
</g>
<g style="mix-blend-mode:soft-light" filter="url(#filter1_d)">
<path d="M12.3843 146.859C4.13541 278.329 153.166 379.546 229.056 432.904" stroke="#06D31B" stroke-width="3"/>
</g>
<path fill-rule="evenodd" clip-rule="evenodd" d="M222.14 59.6122L345.444 198.014C346.246 198.915 346.313 199.505 346.32 199.827C346.329 200.311 346.163 201.021 345.653 201.742C345.143 202.463 344.53 202.856 344.07 203.009C343.765 203.11 343.186 203.244 342.069 202.787L320.02 193.784V209.986L336.399 216.674C354.059 223.885 369.332 202.279 356.643 188.036L233.34 49.6341C226.348 41.787 214.15 41.5731 206.888 49.1705L150.146 108.533V77.8131H129.323V130.318L78.3228 183.674C64.8423 197.778 80.2928 220.251 98.288 212.715L111.788 207.061V189.704C110.21 190.753 108.936 191.623 108.004 192.267C107.676 192.494 107.42 192.628 107.19 192.724L92.4936 198.879C91.3312 199.366 90.7504 199.219 90.4627 199.122C90.0076 198.969 89.3809 198.565 88.8626 197.812C88.3443 197.058 88.1916 196.328 88.2116 195.848C88.2243 195.545 88.2953 194.95 89.1661 194.039L149.977 130.419H150.146V130.242L217.731 59.535C218.941 58.2687 220.974 58.3044 222.14 59.6122Z" fill="#1AE02E"/>
<rect x="117.192" y="177.47" width="196.328" height="137.146" rx="11.5" stroke="url(#paint3_linear)" stroke-width="13"/>
<g filter="url(#filter2_d)">
<path d="M182.804 236.013H162.551V291.096H148.928V236.013H128.948V224.979H182.804V236.013ZM229.003 277.473H205.117L200.576 291.096H186.09L210.702 224.979H223.326L248.075 291.096H233.589L229.003 277.473ZM208.795 266.438H225.324L217.014 241.69L208.795 266.438ZM282.331 264.077H274.475V291.096H260.852V224.979H274.475V251.453H280.696L296.862 224.979H313.482L293.093 256.266L315.616 291.096H299.359L282.331 264.077ZM377.163 236.013H356.91V291.096H343.287V236.013H323.307V224.979H377.163V236.013ZM431.127 224.979H444.795V291.096H431.127V247.184L404.653 291.096H391.03V224.979H404.653V268.981L431.127 224.979ZM484.682 264.077H476.826V291.096H463.203V224.979H476.826V251.453H483.047L499.213 224.979H515.833L495.444 256.266L517.967 291.096H501.711L484.682 264.077Z" fill="#16447B"/>
</g>
<defs>
<filter id="filter0_i" x="0" y="146.311" width="230.12" height="291.44" filterUnits="userSpaceOnUse" color-interpolation-filters="sRGB">
<feFlood flood-opacity="0" result="BackgroundImageFix"/>
<feBlend mode="normal" in="SourceGraphic" in2="BackgroundImageFix" result="shape"/>
<feColorMatrix in="SourceAlpha" type="matrix" values="0 0 0 0 0 0 0 0 0 0 0 0 0 0 0 0 0 0 127 0" result="hardAlpha"/>
<feOffset dy="4"/>
<feGaussianBlur stdDeviation="2"/>
<feComposite in2="hardAlpha" operator="arithmetic" k2="-1" k3="1"/>
<feColorMatrix type="matrix" values="0 0 0 0 0 0 0 0 0 0 0 0 0 0 0 0 0 0 0.25 0"/>
<feBlend mode="normal" in2="shape" result="effect1_innerShadow"/>
</filter>
<filter id="filter1_d" x="8.55542" y="146.765" width="223.363" height="293.366" filterUnits="userSpaceOnUse" color-interpolation-filters="sRGB">
<feFlood flood-opacity="0" result="BackgroundImageFix"/>
<feColorMatrix in="SourceAlpha" type="matrix" values="0 0 0 0 0 0 0 0 0 0 0 0 0 0 0 0 0 0 127 0"/>
<feOffset dy="4"/>
<feGaussianBlur stdDeviation="1"/>
<feColorMatrix type="matrix" values="0 0 0 0 0 0 0 0 0 0 0 0 0 0 0 0 0 0 0.25 0"/>
<feBlend mode="normal" in2="BackgroundImageFix" result="effect1_dropShadow"/>
<feBlend mode="normal" in="SourceGraphic" in2="effect1_dropShadow" result="shape"/>
</filter>
<filter id="filter2_d" x="128.948" y="224.979" width="398.02" height="75.1172" filterUnits="userSpaceOnUse" color-interpolation-filters="sRGB">
<feFlood flood-opacity="0" result="BackgroundImageFix"/>
<feColorMatrix in="SourceAlpha" type="matrix" values="0 0 0 0 0 0 0 0 0 0 0 0 0 0 0 0 0 0 127 0"/>
<feOffset dx="6" dy="6"/>
<feGaussianBlur stdDeviation="1.5"/>
<feColorMatrix type="matrix" values="0 0 0 0 0 0 0 0 0 0 0 0 0 0 0 0 0 0 0.25 0"/>
<feBlend mode="normal" in2="BackgroundImageFix" result="effect1_dropShadow"/>
<feBlend mode="normal" in="SourceGraphic" in2="effect1_dropShadow" result="shape"/>
</filter>
<linearGradient id="paint0_linear" x1="437.913" y1="266.866" x2="-17.4584" y2="259.742" gradientUnits="userSpaceOnUse">
<stop offset="0.00520833" stop-color="white"/>
<stop offset="0.567708" stop-color="white" stop-opacity="0"/>
</linearGradient>
<linearGradient id="paint1_linear" x1="443.941" y1="265.222" x2="17.0643" y2="254.263" gradientUnits="userSpaceOnUse">
<stop offset="0.0729167" stop-color="white"/>
<stop offset="0.578125" stop-color="white" stop-opacity="0"/>
</linearGradient>
<linearGradient id="paint2_linear" x1="-52.9228" y1="117.913" x2="228.431" y2="437.35" gradientUnits="userSpaceOnUse">
<stop offset="0.0134395" stop-color="white"/>
<stop offset="0.62125" stop-color="white" stop-opacity="0"/>
</linearGradient>
<linearGradient id="paint3_linear" x1="110.692" y1="246.043" x2="320.02" y2="246.043" gradientUnits="userSpaceOnUse">
<stop offset="0.611403" stop-color="#628FC5"/>
<stop offset="1" stop-color="#628FC5" stop-opacity="0"/>
</linearGradient>
</defs>
</svg>
