<svg width="134" height="34" viewBox="0 0 134 34" fill="none" xmlns="http://www.w3.org/2000/svg">
<path d="M15.489 31.705L15.136 30.769L15.134 30.77L15.489 31.705ZM4.27199 30.524L3.64398 31.302L3.64699 31.304L4.27199 30.524ZM8.13799 9.06201L7.39798 8.39001L8.13799 9.06201ZM24.61 3.17801L23.889 3.871L23.898 3.88101L24.61 3.17801ZM25.791 9.23401L24.812 9.03101L24.81 9.04001L24.808 9.048L25.791 9.23401ZM24.591 10.948L25.153 11.775L25.164 11.768L24.591 10.948ZM22.211 8.396L21.238 8.16599L21.237 8.16901L22.211 8.396ZM14.327 7.444L14.941 8.233H14.942L14.327 7.444ZM7.75699 15.099L8.62099 15.604L8.62198 15.602L7.75699 15.099ZM6.59598 27.972L5.84898 28.637L5.85698 28.646L6.59598 27.972ZM15.051 28.867L15.378 29.812L15.383 29.81L15.051 28.867ZM21.754 26.249C21.777 26.249 21.751 26.253 21.699 26.231C21.641 26.207 21.581 26.165 21.535 26.108C21.492 26.056 21.483 26.018 21.485 26.025C21.487 26.033 21.497 26.075 21.497 26.163H23.497C23.497 25.749 23.417 25.253 23.087 24.847C22.725 24.402 22.217 24.249 21.754 24.249V26.249ZM21.497 26.163C21.497 26.14 21.491 26.303 21.178 26.707C20.888 27.081 20.419 27.551 19.741 28.12L21.025 29.653C21.756 29.04 22.344 28.466 22.758 27.933C23.149 27.429 23.497 26.821 23.497 26.163H21.497ZM19.741 28.12C18.424 29.223 16.893 30.107 15.136 30.769L15.841 32.64C17.792 31.906 19.523 30.911 21.025 29.653L19.741 28.12ZM15.134 30.77C13.376 31.436 11.81 31.752 10.423 31.752V33.752C12.109 33.752 13.92 33.369 15.843 32.64L15.134 30.77ZM10.423 31.752C8.41699 31.752 6.58498 31.095 4.89798 29.744L3.64699 31.304C5.66699 32.923 7.93499 33.752 10.423 33.752V31.752ZM4.89998 29.746C3.34098 28.487 2.51099 26.649 2.51099 24.068H0.510986C0.510986 27.125 1.52198 29.59 3.64398 31.302L4.89998 29.746ZM2.51099 24.068C2.51099 19.239 4.57999 14.466 8.87799 9.73499L7.39798 8.39001C2.86098 13.384 0.510986 18.615 0.510986 24.068H2.51099ZM8.87799 9.73499C13.231 4.94499 17.248 2.75 20.935 2.75V0.75C16.421 0.75 11.906 3.43001 7.39798 8.39001L8.87799 9.73499ZM20.935 2.75C22.247 2.75 23.195 3.147 23.889 3.871L25.332 2.48599C24.198 1.30499 22.695 0.75 20.935 0.75V2.75ZM23.898 3.88101C24.651 4.64301 25 5.49299 25 6.47299H27C27 4.93899 26.423 3.59201 25.322 2.47601L23.898 3.88101ZM25 6.47299C25 7.61299 24.931 8.45501 24.812 9.03101L26.77 9.43701C26.93 8.66701 27 7.66899 27 6.47299H25ZM24.808 9.048C24.739 9.415 24.523 9.77599 24.019 10.128L25.164 11.768C26.006 11.18 26.589 10.399 26.774 9.41901L24.808 9.048ZM24.029 10.121C23.385 10.558 23.06 10.633 22.973 10.633V12.633C23.698 12.633 24.452 12.251 25.153 11.775L24.029 10.121ZM22.973 10.633C22.972 10.633 22.974 10.633 22.977 10.634C22.979 10.634 22.983 10.634 22.987 10.635C22.997 10.638 23.005 10.641 23.01 10.644C23.016 10.646 23.016 10.647 23.01 10.642C23.004 10.637 22.991 10.626 22.973 10.605L21.449 11.9C21.825 12.342 22.344 12.633 22.973 12.633V10.633ZM22.973 10.605C22.951 10.58 22.887 10.49 22.887 10.224H20.887C20.887 10.822 21.039 11.418 21.449 11.9L22.973 10.605ZM22.887 10.224C22.887 10.068 22.963 9.57599 23.185 8.62299L21.237 8.16901C21.027 9.07001 20.887 9.796 20.887 10.224H22.887ZM23.184 8.62601C23.403 7.70101 23.535 6.926 23.535 6.358H21.535C21.535 6.679 21.451 7.26299 21.238 8.16599L23.184 8.62601ZM23.535 6.358C23.535 5.588 23.369 4.82299 22.864 4.24399C22.337 3.63899 21.597 3.41599 20.84 3.41599V5.41599C21.212 5.41599 21.32 5.51599 21.357 5.55899C21.417 5.62799 21.535 5.834 21.535 6.358H23.535ZM20.84 3.41599C18.741 3.41599 16.345 4.603 13.712 6.655L14.942 8.233C17.489 6.247 19.435 5.41599 20.84 5.41599V3.41599ZM13.713 6.655C11.025 8.746 8.75399 11.399 6.89299 14.596L8.62198 15.602C10.366 12.604 12.475 10.153 14.941 8.233L13.713 6.655ZM6.89398 14.595C5.03398 17.778 4.05298 20.796 4.05298 23.63H6.05298C6.05298 21.259 6.87499 18.59 8.62099 15.604L6.89398 14.595ZM4.05298 23.63C4.05298 25.582 4.63698 27.276 5.84898 28.637L7.34299 27.307C6.49799 26.358 6.05298 25.157 6.05298 23.63H4.05298ZM5.85698 28.646C7.13098 30.044 8.90699 30.686 11.033 30.686V28.686C9.32399 28.686 8.14199 28.185 7.33499 27.299L5.85698 28.646ZM11.033 30.686C12.29 30.686 13.747 30.378 15.378 29.812L14.723 27.922C13.206 28.448 11.984 28.686 11.033 28.686V30.686ZM15.383 29.81C17.052 29.223 18.588 28.439 19.986 27.458L18.837 25.821C17.595 26.693 16.223 27.394 14.719 27.924L15.383 29.81ZM19.986 27.458C20.639 27 21.14 26.669 21.498 26.457C21.678 26.349 21.804 26.283 21.885 26.247C22.011 26.19 21.93 26.249 21.754 26.249V24.249C21.457 24.249 21.188 24.366 21.059 24.425C20.884 24.505 20.687 24.612 20.477 24.737C20.054 24.988 19.505 25.352 18.837 25.821L19.986 27.458ZM41.197 24.068H42.197V21.051L40.395 23.471L41.197 24.068ZM32.018 16.032L32.808 16.645L32.809 16.644L32.018 16.032ZM43.292 12.071L44.218 11.695L44.215 11.687L44.211 11.679L43.292 12.071ZM45.405 15.48L44.422 15.298V15.3L45.405 15.48ZM46.129 28.924L46.608 28.046L46.6 28.042L46.591 28.038L46.129 28.924ZM46.148 31.229L45.563 30.417L45.557 30.422L45.551 30.426L46.148 31.229ZM34.189 18.07L35.005 18.648L35.006 18.646L34.189 18.07ZM40.395 23.471C38.658 25.803 36.976 27.503 35.356 28.614L36.488 30.263C38.346 28.988 40.181 27.107 41.999 24.666L40.395 23.471ZM35.356 28.614C33.711 29.743 32.314 30.229 31.142 30.229V32.229C32.864 32.229 34.654 31.521 36.488 30.263L35.356 28.614ZM31.142 30.229C30.491 30.229 29.912 29.971 29.367 29.338L27.852 30.643C28.728 31.661 29.838 32.229 31.142 32.229V30.229ZM29.367 29.338C28.841 28.727 28.543 27.913 28.543 26.811H26.543C26.543 28.298 26.956 29.604 27.852 30.643L29.367 29.338ZM28.543 26.811C28.543 23.775 29.901 20.394 32.808 16.645L31.228 15.419C28.169 19.364 26.543 23.168 26.543 26.811H28.543ZM32.809 16.644C35.726 12.871 38.432 11.243 40.911 11.243V9.24301C37.499 9.24301 34.277 11.475 31.227 15.421L32.809 16.644ZM40.911 11.243C41.24 11.243 41.487 11.332 41.697 11.493C41.92 11.665 42.158 11.963 42.372 12.464L44.211 11.679C43.905 10.961 43.485 10.345 42.915 9.90701C42.332 9.45901 41.649 9.24301 40.911 9.24301V11.243ZM42.365 12.448C42.493 12.761 42.689 13.078 42.995 13.317C43.315 13.566 43.69 13.681 44.072 13.681V11.681C44.08 11.681 44.103 11.682 44.137 11.693C44.171 11.704 44.202 11.721 44.226 11.74C44.272 11.776 44.256 11.787 44.218 11.695L42.365 12.448ZM44.072 13.681C44.265 13.681 44.4 13.7 44.489 13.723C44.576 13.745 44.604 13.768 44.602 13.766C44.595 13.761 44.585 13.748 44.582 13.74C44.581 13.738 44.596 13.771 44.596 13.861H46.596C46.596 13.236 46.381 12.614 45.827 12.185C45.322 11.794 44.682 11.681 44.072 11.681V13.681ZM44.596 13.861C44.596 14.164 44.545 14.634 44.422 15.298L46.389 15.662C46.52 14.955 46.596 14.345 46.596 13.861H44.596ZM44.422 15.3C43.736 19.043 43.377 21.765 43.377 23.402H45.377C45.377 21.967 45.703 19.407 46.389 15.66L44.422 15.3ZM43.377 23.402C43.377 24.988 43.526 26.331 43.862 27.389C44.197 28.444 44.758 29.337 45.666 29.811L46.591 28.038C46.332 27.902 46.017 27.57 45.768 26.784C45.52 26.002 45.377 24.888 45.377 23.402H43.377ZM45.65 29.802C45.846 29.909 45.927 29.994 45.956 30.032C45.968 30.048 45.969 30.054 45.968 30.051C45.966 30.046 45.967 30.044 45.967 30.048H47.967C47.967 29.089 47.332 28.442 46.608 28.046L45.65 29.802ZM45.967 30.048C45.967 30 45.986 30.002 45.94 30.068C45.889 30.142 45.778 30.262 45.563 30.417L46.733 32.04C47.357 31.59 47.967 30.936 47.967 30.048H45.967ZM45.551 30.426C45.119 30.747 44.797 30.838 44.567 30.838V32.838C45.353 32.838 46.085 32.522 46.745 32.031L45.551 30.426ZM44.567 30.838C44.161 30.838 43.62 30.593 43.053 29.393L41.244 30.246C41.948 31.737 43.019 32.838 44.567 32.838V30.838ZM43.053 29.393C42.51 28.241 42.197 26.496 42.197 24.068H40.197C40.197 26.618 40.518 28.706 41.244 30.246L43.053 29.393ZM40.035 12.347C38.879 12.347 37.756 12.887 36.688 13.75C35.614 14.617 34.511 15.879 33.372 17.493L35.006 18.646C36.089 17.112 37.07 16.012 37.945 15.306C38.826 14.594 39.515 14.347 40.035 14.347V12.347ZM33.373 17.492C31.12 20.672 29.856 23.488 29.856 25.877H31.856C31.856 24.128 32.815 21.739 35.005 18.648L33.373 17.492ZM29.856 25.877C29.856 26.686 29.984 27.466 30.384 28.071C30.832 28.749 31.526 29.067 32.304 29.067V27.067C32.189 27.067 32.138 27.046 32.121 27.038C32.108 27.031 32.085 27.018 32.053 26.969C31.97 26.843 31.856 26.529 31.856 25.877H29.856ZM32.304 29.067C33.317 29.067 34.362 28.568 35.392 27.819C36.443 27.054 37.601 25.937 38.863 24.5L37.36 23.18C36.147 24.561 35.099 25.558 34.215 26.202C33.308 26.862 32.687 27.067 32.304 27.067V29.067ZM38.863 24.5C41.41 21.601 42.825 18.782 42.825 16.07H40.825C40.825 18.081 39.765 20.442 37.36 23.18L38.863 24.5ZM42.825 16.07C42.825 15.085 42.669 14.172 42.213 13.479C41.709 12.712 40.929 12.347 40.035 12.347V14.347C40.334 14.347 40.449 14.436 40.542 14.577C40.683 14.792 40.825 15.24 40.825 16.07H42.825ZM65.267 18.565L64.381 18.101L64.371 18.121L64.361 18.142L65.267 18.565ZM65.934 13.785L66.928 13.889L66.929 13.883L65.934 13.785ZM69.438 29.248L70.117 28.514L70.111 28.509L70.105 28.503L69.438 29.248ZM69.418 31.362L68.929 30.49L68.92 30.495L69.418 31.362ZM56.507 22.754L56.23 21.793L56.226 21.795L56.507 22.754ZM55.136 23.364L54.405 22.681L54.403 22.683L55.136 23.364ZM54.679 24.83L53.694 24.658L53.692 24.671L54.679 24.83ZM52.661 13.252L53.658 13.32L53.659 13.315L52.661 13.252ZM53.556 11.024L54.123 11.847L54.129 11.843L53.556 11.024ZM55.727 14.604L56.712 14.772L56.714 14.765L55.727 14.604ZM61.287 19.346L61.41 20.338H61.415L61.287 19.346ZM66.153 19.029C66.224 18.893 66.266 18.749 66.289 18.662C66.318 18.556 66.344 18.436 66.369 18.307C66.419 18.049 66.472 17.714 66.529 17.308C66.642 16.494 66.775 15.353 66.928 13.889L64.939 13.681C64.787 15.138 64.657 16.252 64.548 17.032C64.494 17.423 64.446 17.718 64.406 17.925C64.385 18.029 64.369 18.1 64.357 18.144C64.341 18.206 64.345 18.171 64.381 18.101L66.153 19.029ZM66.929 13.883C67.037 12.776 67.258 12.083 67.506 11.694C67.716 11.364 67.914 11.281 68.162 11.281V9.28101C67.152 9.28101 66.351 9.783 65.818 10.621C65.323 11.399 65.059 12.458 64.938 13.688L66.929 13.883ZM68.162 11.281C68.522 11.281 68.608 11.371 68.611 11.374C68.615 11.377 68.704 11.464 68.704 11.824H70.704C70.704 11.155 70.536 10.471 70.026 9.95999C69.515 9.44899 68.83 9.28101 68.162 9.28101V11.281ZM68.704 11.824C68.704 11.824 68.704 11.826 68.704 11.831C68.704 11.836 68.703 11.843 68.703 11.853C68.701 11.872 68.699 11.897 68.695 11.93C68.687 11.997 68.673 12.083 68.654 12.192C68.614 12.411 68.552 12.697 68.465 13.055L70.41 13.525C70.582 12.812 70.704 12.205 70.704 11.824H68.704ZM68.465 13.055C67.478 17.147 66.971 20.627 66.971 23.478H68.971C68.971 20.844 69.442 17.533 70.41 13.525L68.465 13.055ZM66.971 23.478C66.971 25.01 67.096 26.324 67.369 27.395C67.638 28.457 68.076 29.371 68.77 29.993L70.105 28.503C69.822 28.25 69.526 27.764 69.307 26.902C69.09 26.05 68.971 24.917 68.971 23.478H66.971ZM68.758 29.982C68.981 30.188 69.11 30.34 69.177 30.441C69.251 30.553 69.199 30.525 69.199 30.391H71.199C71.199 29.964 71.02 29.6 70.841 29.331C70.654 29.051 70.402 28.778 70.117 28.514L68.758 29.982ZM69.199 30.391C69.199 30.354 69.206 30.32 69.217 30.293C69.226 30.269 69.234 30.262 69.225 30.273C69.202 30.302 69.123 30.381 68.929 30.49L69.908 32.234C70.521 31.89 71.199 31.306 71.199 30.391H69.199ZM68.92 30.495C68.506 30.733 68.216 30.8 68.028 30.8V32.8C68.678 32.8 69.315 32.575 69.917 32.229L68.92 30.495ZM68.028 30.8C67.72 30.8 67.21 30.613 66.752 29.197C66.306 27.82 66.058 25.653 66.058 22.621H64.058C64.058 25.709 64.304 28.131 64.849 29.813C65.381 31.457 66.357 32.8 68.028 32.8V30.8ZM66.058 22.621C66.058 22.322 66.007 21.915 65.743 21.564C65.44 21.159 64.997 21.012 64.601 21.012V23.012C64.567 23.012 64.49 23.006 64.394 22.964C64.293 22.919 64.206 22.848 64.143 22.764C64.032 22.616 64.058 22.514 64.058 22.621H66.058ZM64.601 21.012C63.371 21.012 61.883 21.084 60.14 21.224L60.301 23.218C62.012 23.08 63.443 23.012 64.601 23.012V21.012ZM60.14 21.224C58.407 21.365 57.083 21.548 56.23 21.793L56.784 23.715C57.43 23.529 58.581 23.357 60.301 23.218L60.14 21.224ZM56.226 21.795C55.835 21.909 55.491 22.028 55.206 22.155C54.947 22.27 54.636 22.434 54.405 22.681L55.867 24.046C55.814 24.103 55.821 24.07 56.018 23.982C56.191 23.906 56.443 23.815 56.789 23.714L56.226 21.795ZM54.403 22.683C54.158 22.948 54.025 23.303 53.943 23.566C53.849 23.868 53.768 24.237 53.694 24.658L55.664 25.002C55.73 24.623 55.795 24.348 55.853 24.161C55.882 24.068 55.905 24.013 55.918 23.985C55.934 23.951 55.923 23.986 55.869 24.044L54.403 22.683ZM53.692 24.671C53.556 25.514 53.489 26.386 53.489 27.287H55.489C55.489 26.486 55.549 25.72 55.666 24.989L53.692 24.671ZM53.489 27.287V29.629H55.489V27.287H53.489ZM53.489 29.629C53.489 30.175 53.362 30.397 53.285 30.482C53.223 30.549 53.067 30.667 52.623 30.667V32.667C53.422 32.667 54.2 32.444 54.76 31.833C55.305 31.238 55.489 30.442 55.489 29.629H53.489ZM52.623 30.667C52.338 30.667 52.275 30.587 52.245 30.549C52.177 30.46 52.061 30.209 52.061 29.629H50.061C50.061 30.408 50.205 31.175 50.658 31.765C51.149 32.406 51.866 32.667 52.623 32.667V30.667ZM52.061 29.629C52.061 28.817 52.166 27.747 52.39 26.404L50.417 26.075C50.184 27.474 50.061 28.663 50.061 29.629H52.061ZM52.39 26.404C52.818 23.837 53.239 19.464 53.658 13.32L51.663 13.184C51.244 19.329 50.828 23.614 50.417 26.075L52.39 26.404ZM53.659 13.315C53.683 12.928 53.711 12.628 53.742 12.407C53.776 12.162 53.802 12.091 53.795 12.109L51.945 11.348C51.849 11.582 51.797 11.873 51.76 12.135C51.721 12.423 51.689 12.776 51.663 13.189L53.659 13.315ZM53.795 12.109C53.775 12.156 53.766 12.148 53.825 12.088C53.881 12.031 53.975 11.949 54.123 11.847L52.988 10.201C52.583 10.48 52.149 10.852 51.945 11.348L53.795 12.109ZM54.129 11.843C54.35 11.688 54.564 11.624 54.793 11.624V9.62399C54.134 9.62399 53.523 9.82599 52.982 10.205L54.129 11.843ZM54.793 11.624C54.957 11.624 55.065 11.641 55.13 11.659C55.193 11.676 55.202 11.69 55.188 11.678C55.17 11.663 55.157 11.643 55.153 11.633C55.151 11.629 55.165 11.66 55.165 11.748H57.165C57.165 11.161 56.976 10.558 56.456 10.131C55.974 9.73601 55.362 9.62399 54.793 9.62399V11.624ZM55.165 11.748C55.165 11.691 55.169 11.689 55.146 11.855C55.129 11.98 55.103 12.16 55.067 12.396C54.994 12.867 54.885 13.549 54.74 14.443L56.714 14.765C56.86 13.869 56.97 13.18 57.044 12.699C57.08 12.459 57.109 12.267 57.128 12.126C57.142 12.025 57.165 11.861 57.165 11.748H55.165ZM54.741 14.436C54.433 16.244 54.27 17.7 54.27 18.774H56.27C56.27 17.869 56.411 16.544 56.712 14.772L54.741 14.436ZM54.27 18.774C54.27 19.208 54.339 19.71 54.628 20.128C54.963 20.613 55.476 20.822 55.993 20.822V18.822C55.993 18.822 56.042 18.822 56.111 18.856C56.185 18.892 56.241 18.945 56.273 18.992C56.301 19.032 56.298 19.047 56.289 19.008C56.28 18.969 56.27 18.895 56.27 18.774H54.27ZM55.993 20.822C57.028 20.822 58.851 20.655 61.41 20.338L61.164 18.353C58.595 18.671 56.888 18.822 55.993 18.822V20.822ZM61.415 20.338C62.703 20.172 63.702 20.021 64.398 19.884C64.742 19.817 65.04 19.747 65.272 19.674C65.385 19.638 65.515 19.59 65.638 19.526C65.7 19.494 65.784 19.445 65.869 19.376C65.948 19.311 66.081 19.187 66.173 18.988L64.361 18.142C64.443 17.967 64.555 17.867 64.603 17.827C64.658 17.783 64.701 17.759 64.713 17.753C64.737 17.741 64.729 17.748 64.665 17.768C64.543 17.807 64.332 17.859 64.013 17.922C63.382 18.045 62.436 18.19 61.159 18.354L61.415 20.338ZM88.595 15.937L89.387 15.327L89.079 14.926L88.573 14.937L88.595 15.937ZM81.016 26.43L81.889 26.916L81.89 26.915L81.016 26.43ZM78.73 30.276L79.416 31.005L79.427 30.994L79.438 30.983L78.73 30.276ZM77.531 30.829L77.259 29.866L77.253 29.868L77.531 30.829ZM76.026 15.975L75.04 15.811L75.039 15.814L76.026 15.975ZM79.054 19.117L80.04 19.287V19.284L79.054 19.117ZM78.216 24.906L77.216 24.888L77.172 27.309L78.912 25.625L78.216 24.906ZM81.682 19.898L80.829 19.376L80.825 19.383L80.821 19.389L81.682 19.898ZM86.443 13.195L87.122 13.929L86.443 13.195ZM91.584 13.423L90.668 13.824L90.672 13.832L91.584 13.423ZM97.012 18.317L96.116 17.872L96.114 17.877L97.012 18.317ZM100.116 13.423L99.376 12.751L99.372 12.755L100.116 13.423ZM105.733 13.347L104.818 13.75L104.82 13.754L105.733 13.347ZM106.743 18.051L107.739 17.961L107.738 17.954L106.743 18.051ZM107.619 23.84L106.643 24.059L106.644 24.066L107.619 23.84ZM109.828 27.21L110.256 26.307L110.249 26.303L109.828 27.21ZM103.791 20.545L104.786 20.448L104.785 20.439L103.791 20.545ZM100.592 17.479L99.782 16.893L99.777 16.899L100.592 17.479ZM97.069 23.668L97.955 24.132L97.069 23.668ZM94.174 28.524L93.398 27.894L93.397 27.895L94.174 28.524ZM90.823 29.077L90.105 29.773L90.111 29.779L90.116 29.784L90.823 29.077ZM90.004 27.496L89.02 27.677L89.021 27.68L90.004 27.496ZM89.642 22.945L88.643 22.992V22.997L89.642 22.945ZM88.573 14.937C88.191 14.945 87.852 15.089 87.581 15.248C87.304 15.411 87.032 15.631 86.768 15.882C86.24 16.384 85.651 17.098 85.004 17.994C83.706 19.791 82.084 22.448 80.141 25.944L81.89 26.915C83.82 23.441 85.397 20.865 86.625 19.165C87.242 18.311 87.747 17.711 88.146 17.332C88.345 17.143 88.494 17.031 88.596 16.971C88.706 16.907 88.704 16.935 88.616 16.937L88.573 14.937ZM80.142 25.943C79.49 27.115 78.978 28.013 78.604 28.642C78.417 28.957 78.268 29.198 78.157 29.368C78.026 29.569 77.992 29.601 78.023 29.569L79.438 30.983C79.577 30.844 79.719 30.635 79.832 30.461C79.965 30.257 80.13 29.989 80.323 29.664C80.711 29.01 81.234 28.093 81.889 26.916L80.142 25.943ZM78.045 29.548C78.047 29.546 78.036 29.557 78.002 29.579C77.968 29.6 77.919 29.627 77.851 29.658C77.712 29.722 77.518 29.793 77.259 29.866L77.803 31.791C78.412 31.619 79.014 31.383 79.416 31.005L78.045 29.548ZM77.253 29.868C76.728 30.02 76.352 30.076 76.103 30.076V32.076C76.614 32.076 77.191 31.968 77.808 31.789L77.253 29.868ZM76.103 30.076C76.271 30.076 76.355 30.179 76.337 30.155C76.296 30.103 76.206 29.941 76.114 29.585C75.934 28.882 75.827 27.742 75.827 26.106H73.827C73.827 27.784 73.932 29.129 74.177 30.082C74.298 30.555 74.474 31.014 74.752 31.376C75.053 31.766 75.508 32.076 76.103 32.076V30.076ZM75.827 26.106C75.827 24.332 76.212 21.03 77.013 16.137L75.039 15.814C74.241 20.695 73.827 24.148 73.827 26.106H75.827ZM77.013 16.139C77.343 14.158 77.521 12.67 77.521 11.729H75.521C75.521 12.488 75.37 13.831 75.04 15.811L77.013 16.139ZM77.521 11.729C77.521 11.438 77.589 11.407 77.548 11.452C77.539 11.462 77.528 11.472 77.518 11.479C77.507 11.486 77.501 11.488 77.503 11.487C77.508 11.485 77.548 11.472 77.645 11.472V9.47198C77.086 9.47198 76.491 9.63299 76.057 10.119C75.641 10.584 75.521 11.181 75.521 11.729H77.521ZM77.645 11.472C78.075 11.472 78.272 11.606 78.409 11.803C78.592 12.067 78.759 12.588 78.759 13.519H80.759C80.759 12.418 80.574 11.415 80.052 10.663C79.484 9.84499 78.624 9.47198 77.645 9.47198V11.472ZM78.759 13.519C78.759 14.373 78.54 16.157 78.068 18.951L80.04 19.284C80.508 16.517 80.759 14.568 80.759 13.519H78.759ZM78.069 18.948C77.529 22.085 77.231 24.107 77.216 24.888L79.216 24.925C79.227 24.334 79.488 22.497 80.04 19.287L78.069 18.948ZM78.912 25.625C79.809 24.756 81.027 22.972 82.543 20.407L80.821 19.389C79.291 21.978 78.197 23.533 77.521 24.188L78.912 25.625ZM82.535 20.42C84.706 16.87 86.225 14.759 87.122 13.929L85.764 12.461C84.629 13.51 82.975 15.867 80.829 19.376L82.535 20.42ZM87.122 13.929C88.02 13.097 88.848 12.767 89.623 12.767V10.767C88.214 10.767 86.922 11.388 85.763 12.461L87.122 13.929ZM89.623 12.767C89.875 12.767 90.26 12.889 90.668 13.824L92.501 13.023C91.944 11.748 91.021 10.767 89.623 10.767V12.767ZM90.672 13.832C90.851 14.233 91.038 15.033 91.186 16.34C91.33 17.616 91.429 19.283 91.48 21.351L93.479 21.302C93.428 19.205 93.327 17.473 93.173 16.115C93.023 14.787 92.813 13.719 92.497 13.014L90.672 13.832ZM91.48 21.351C91.506 22.415 91.603 23.308 91.814 23.959L93.716 23.34C93.597 22.975 93.504 22.319 93.479 21.302L91.48 21.351ZM91.814 23.959C91.9 24.224 91.988 24.463 92.076 24.65C92.118 24.738 92.181 24.86 92.271 24.976C92.316 25.034 92.393 25.125 92.508 25.208C92.621 25.29 92.834 25.411 93.127 25.411V23.411C93.401 23.411 93.593 23.524 93.684 23.59C93.777 23.658 93.832 23.725 93.852 23.751C93.892 23.803 93.901 23.831 93.883 23.792C93.851 23.724 93.795 23.583 93.716 23.34L91.814 23.959ZM93.127 25.411C93.477 25.411 93.756 25.268 93.933 25.151C94.121 25.028 94.289 24.871 94.437 24.712C94.734 24.393 95.053 23.953 95.389 23.425C96.067 22.362 96.908 20.799 97.909 18.758L96.114 17.877C95.122 19.898 94.32 21.382 93.702 22.35C93.391 22.838 93.149 23.16 92.974 23.349C92.932 23.394 92.898 23.426 92.873 23.449C92.86 23.46 92.85 23.468 92.843 23.473C92.836 23.479 92.833 23.481 92.834 23.481C92.834 23.48 92.839 23.477 92.849 23.472C92.86 23.466 92.876 23.458 92.899 23.45C92.944 23.433 93.022 23.411 93.127 23.411V25.411ZM97.907 18.762C98.954 16.656 99.942 15.114 100.86 14.091L99.372 12.755C98.284 13.967 97.202 15.688 96.116 17.872L97.907 18.762ZM100.856 14.096C101.728 13.136 102.599 12.748 103.486 12.748V10.748C101.911 10.748 100.535 11.476 99.376 12.751L100.856 14.096ZM103.486 12.748C103.818 12.748 104.054 12.83 104.239 12.962C104.433 13.1 104.637 13.338 104.818 13.75L106.649 12.944C106.36 12.289 105.955 11.728 105.399 11.333C104.836 10.932 104.183 10.748 103.486 10.748V12.748ZM104.82 13.754C105.224 14.66 105.548 16.101 105.747 18.148L107.738 17.954C107.531 15.837 107.182 14.142 106.647 12.94L104.82 13.754ZM105.747 18.141C105.94 20.284 106.238 22.258 106.643 24.059L108.594 23.621C108.212 21.918 107.926 20.032 107.739 17.961L105.747 18.141ZM106.644 24.066C107.083 25.955 107.938 27.436 109.407 28.117L110.249 26.303C109.584 25.995 108.967 25.228 108.593 23.614L106.644 24.066ZM109.4 28.114C109.695 28.254 109.839 28.371 109.9 28.438C109.946 28.49 109.913 28.473 109.913 28.41H111.913C111.913 27.334 111.053 26.684 110.256 26.307L109.4 28.114ZM109.913 28.41C109.913 28.393 109.921 28.428 109.853 28.531C109.779 28.641 109.639 28.796 109.389 28.989L110.61 30.573C111.29 30.048 111.913 29.333 111.913 28.41H109.913ZM109.389 28.989C108.868 29.39 108.522 29.486 108.323 29.486V31.486C109.14 31.486 109.911 31.112 110.61 30.573L109.389 28.989ZM108.323 29.486C107.787 29.486 107.148 29.178 106.441 28.079L104.759 29.16C105.652 30.55 106.828 31.486 108.323 31.486V29.486ZM106.441 28.079C106.138 27.607 105.818 26.762 105.524 25.449C105.234 24.158 104.987 22.495 104.786 20.448L102.796 20.643C103.001 22.735 103.258 24.486 103.572 25.887C103.881 27.265 104.262 28.388 104.759 29.16L106.441 28.079ZM104.785 20.439C104.607 18.774 104.431 17.539 104.25 16.773L102.304 17.233C102.453 17.865 102.619 18.99 102.797 20.652L104.785 20.439ZM104.25 16.773C104.154 16.367 104.008 15.953 103.76 15.62C103.488 15.256 103.061 14.956 102.496 14.956V16.956C102.413 16.956 102.326 16.933 102.252 16.891C102.218 16.872 102.194 16.853 102.178 16.839C102.17 16.832 102.165 16.826 102.161 16.822C102.158 16.818 102.156 16.816 102.156 16.816C102.156 16.816 102.158 16.818 102.16 16.822C102.163 16.826 102.167 16.833 102.172 16.842C102.182 16.86 102.194 16.886 102.209 16.921C102.238 16.994 102.271 17.096 102.304 17.233L104.25 16.773ZM102.496 14.956C101.91 14.956 101.402 15.231 100.995 15.556C100.581 15.888 100.178 16.347 99.782 16.893L101.401 18.066C101.742 17.596 102.025 17.294 102.245 17.118C102.473 16.935 102.549 16.956 102.496 16.956V14.956ZM99.777 16.899C99.008 17.979 97.804 20.102 96.183 23.205L97.955 24.132C99.584 21.014 100.729 19.011 101.406 18.06L99.777 16.899ZM96.183 23.205C94.91 25.635 93.987 27.169 93.398 27.894L94.95 29.155C95.682 28.255 96.688 26.551 97.955 24.132L96.183 23.205ZM93.397 27.895C92.812 28.618 92.44 28.724 92.289 28.724V30.724C93.357 30.724 94.241 30.031 94.952 29.154L93.397 27.895ZM92.289 28.724C92.041 28.724 91.798 28.638 91.53 28.37L90.116 29.784C90.711 30.379 91.446 30.724 92.289 30.724V28.724ZM91.54 28.38C91.245 28.077 91.065 27.728 90.987 27.312L89.021 27.68C89.171 28.483 89.537 29.188 90.105 29.773L91.54 28.38ZM90.987 27.315C90.887 26.771 90.769 25.327 90.641 22.892L88.643 22.997C88.769 25.387 88.892 26.977 89.02 27.677L90.987 27.315ZM90.641 22.897C90.545 20.878 90.408 19.253 90.226 18.036C90.136 17.429 90.031 16.903 89.907 16.471C89.79 16.062 89.632 15.645 89.387 15.327L87.802 16.547C87.8 16.543 87.822 16.573 87.86 16.661C87.897 16.746 87.939 16.863 87.984 17.021C88.075 17.339 88.165 17.771 88.248 18.332C88.416 19.452 88.549 21 88.643 22.992L90.641 22.897ZM127.157 24.068H128.157V21.051L126.355 23.471L127.157 24.068ZM117.978 16.032L118.768 16.645L118.769 16.644L117.978 16.032ZM129.251 12.071L130.178 11.695L130.175 11.687L130.171 11.679L129.251 12.071ZM131.365 15.48L130.382 15.298V15.3L131.365 15.48ZM132.089 28.924L132.568 28.046L132.56 28.042L132.551 28.038L132.089 28.924ZM132.108 31.229L131.523 30.417L131.517 30.422L131.511 30.426L132.108 31.229ZM120.149 18.07L120.965 18.648L120.966 18.646L120.149 18.07ZM126.355 23.471C124.618 25.803 122.936 27.503 121.316 28.614L122.448 30.263C124.306 28.988 126.141 27.107 127.959 24.666L126.355 23.471ZM121.316 28.614C119.671 29.743 118.274 30.229 117.102 30.229V32.229C118.824 32.229 120.614 31.521 122.448 30.263L121.316 28.614ZM117.102 30.229C116.451 30.229 115.872 29.971 115.327 29.338L113.812 30.643C114.688 31.661 115.798 32.229 117.102 32.229V30.229ZM115.327 29.338C114.801 28.727 114.503 27.913 114.503 26.811H112.503C112.503 28.298 112.916 29.604 113.812 30.643L115.327 29.338ZM114.503 26.811C114.503 23.775 115.861 20.394 118.768 16.645L117.188 15.419C114.129 19.364 112.503 23.168 112.503 26.811H114.503ZM118.769 16.644C121.686 12.871 124.392 11.243 126.871 11.243V9.24301C123.459 9.24301 120.237 11.475 117.187 15.421L118.769 16.644ZM126.871 11.243C127.2 11.243 127.447 11.332 127.657 11.493C127.88 11.665 128.118 11.963 128.332 12.464L130.171 11.679C129.865 10.961 129.445 10.345 128.875 9.90701C128.292 9.45901 127.609 9.24301 126.871 9.24301V11.243ZM128.325 12.448C128.452 12.761 128.649 13.078 128.955 13.317C129.275 13.566 129.65 13.681 130.032 13.681V11.681C130.04 11.681 130.063 11.682 130.097 11.693C130.131 11.704 130.162 11.721 130.186 11.74C130.232 11.776 130.215 11.787 130.178 11.695L128.325 12.448ZM130.032 13.681C130.225 13.681 130.36 13.7 130.449 13.723C130.536 13.745 130.564 13.768 130.562 13.766C130.555 13.761 130.545 13.748 130.542 13.74C130.541 13.738 130.556 13.771 130.556 13.861H132.556C132.556 13.236 132.341 12.614 131.787 12.185C131.282 11.794 130.641 11.681 130.032 11.681V13.681ZM130.556 13.861C130.556 14.164 130.505 14.634 130.382 15.298L132.349 15.662C132.479 14.955 132.556 14.345 132.556 13.861H130.556ZM130.382 15.3C129.696 19.043 129.337 21.765 129.337 23.402H131.337C131.337 21.967 131.663 19.407 132.349 15.66L130.382 15.3ZM129.337 23.402C129.337 24.988 129.486 26.331 129.822 27.389C130.157 28.444 130.718 29.337 131.626 29.811L132.551 28.038C132.292 27.902 131.977 27.57 131.728 26.784C131.48 26.002 131.337 24.888 131.337 23.402H129.337ZM131.61 29.802C131.806 29.909 131.887 29.994 131.916 30.032C131.928 30.048 131.929 30.054 131.928 30.051C131.926 30.046 131.927 30.044 131.927 30.048H133.927C133.927 29.089 133.292 28.442 132.568 28.046L131.61 29.802ZM131.927 30.048C131.927 30 131.946 30.002 131.9 30.068C131.849 30.142 131.738 30.262 131.523 30.417L132.693 32.04C133.317 31.59 133.927 30.936 133.927 30.048H131.927ZM131.511 30.426C131.079 30.747 130.757 30.838 130.527 30.838V32.838C131.313 32.838 132.045 32.522 132.705 32.031L131.511 30.426ZM130.527 30.838C130.121 30.838 129.58 30.593 129.013 29.393L127.204 30.246C127.908 31.737 128.979 32.838 130.527 32.838V30.838ZM129.013 29.393C128.47 28.241 128.157 26.496 128.157 24.068H126.157C126.157 26.618 126.478 28.706 127.204 30.246L129.013 29.393ZM125.995 12.347C124.839 12.347 123.716 12.887 122.648 13.75C121.574 14.617 120.471 15.879 119.332 17.493L120.966 18.646C122.049 17.112 123.03 16.012 123.905 15.306C124.786 14.594 125.475 14.347 125.995 14.347V12.347ZM119.333 17.492C117.08 20.672 115.816 23.488 115.816 25.877H117.816C117.816 24.128 118.775 21.739 120.965 18.648L119.333 17.492ZM115.816 25.877C115.816 26.686 115.944 27.466 116.344 28.071C116.792 28.749 117.486 29.067 118.264 29.067V27.067C118.149 27.067 118.098 27.046 118.081 27.038C118.068 27.031 118.045 27.018 118.012 26.969C117.93 26.843 117.816 26.529 117.816 25.877H115.816ZM118.264 29.067C119.277 29.067 120.322 28.568 121.352 27.819C122.403 27.054 123.561 25.937 124.823 24.5L123.32 23.18C122.107 24.561 121.059 25.558 120.175 26.202C119.268 26.862 118.646 27.067 118.264 27.067V29.067ZM124.823 24.5C127.37 21.601 128.785 18.782 128.785 16.07H126.785C126.785 18.081 125.725 20.442 123.32 23.18L124.823 24.5ZM128.785 16.07C128.785 15.085 128.629 14.172 128.173 13.479C127.669 12.712 126.889 12.347 125.995 12.347V14.347C126.294 14.347 126.409 14.436 126.502 14.577C126.643 14.792 126.785 15.24 126.785 16.07H128.785Z" fill="#FD2115"/>
</svg>
