<svg width="157" height="94" viewBox="0 0 157 94" fill="none" xmlns="http://www.w3.org/2000/svg">
<path fill-rule="evenodd" clip-rule="evenodd" d="M78.6 1.10001C99.7 1.10001 116.8 18.2 116.8 39.3C116.8 60.4 99.7 77.5 78.6 77.5C57.5 77.5 40.4 60.4 40.4 39.3C40.4 18.3 57.5 1.10001 78.6 1.10001Z" fill="#D24A43"/>
<path fill-rule="evenodd" clip-rule="evenodd" d="M66.1 38.2C65.8 38.6 65.6 39.1 65.3 39.5C57.8 47.4 56.9 53.7 55.6 61.2H102.1C101.3 52.3 98 44.4 90.2 37.4L89.7 36.8L85.7 35.2L82.9 35.3L70 36.6L66.1 38.2Z" fill="white"/>
<path fill-rule="evenodd" clip-rule="evenodd" d="M8.10001 61.7H148.8C152.6 61.7 155.8 64.8 155.8 68.7V85C155.8 88.8 152.7 92 148.8 92H8.10001C4.30001 92 1.10001 88.9 1.10001 85V68.7C1.10001 64.9 4.30001 61.7 8.10001 61.7Z" fill="#D24A43"/>
<path fill-rule="evenodd" clip-rule="evenodd" d="M77.9 6.6C78.3 7 78.7 7.6 79.1 8.2C79.4 8.7 79.8 9.3 80.2 9.9C80.5 10.5 80.8 11.1 81.2 11.7C81.5 12.2 82.2 13 82.6 13.1C83.4 13.3 84.2 12.6 84.9 12.3C85.5 13.6 85.6 15 85.3 16.5C85 18.1 84.1 19.7 83.1 20.7C82.9 20.9 82.6 21.1 82.4 21.4C84.1 21.8 86.1 22.5 87.8 22.9C89.2 23.6 90.6 24 92 24.6C93.4 25.2 94.8 25.9 96.2 26.3C97.7 26.7 99.8 25.7 100.8 25.1C101.3 24.8 102 24.4 102.5 24C103 23.7 103.7 22.9 104.2 22.9C104.7 22.9 105.3 23.5 105.3 24.2C105.3 25 104.9 25.8 104.6 26.6C104.3 27.3 104 28 103.8 29C103.6 30 103.7 30.8 103.9 31.7C104.1 32.6 104.9 33.9 104.6 35C104.5 35.2 104.2 35.8 103.7 35.7C103.1 35.7 102.7 35 102.1 34.5C100.8 33.4 98.8 31.8 96.3 32C95.1 32.1 94.5 32.6 93.3 33C94.1 35.3 92.6 37.1 90.3 37.2C90.4 37.5 90.7 37.6 90.8 37.8C92.1 39 93.5 40.2 94.7 41.6C98.8 46.3 101.5 52.6 102.3 60.4C102 60.4 101.8 60.4 101.5 60.4C101.2 55.1 99.6 50.7 97.6 46.9C95.6 43.1 93 39.8 89.8 37.1C89.5 37.1 89.2 37.1 89 37.1C89.3 37.5 89.7 37.8 90.1 38.2C95.7 43.4 99.8 50.5 100.7 60.5C99.6 60.5 98.5 60.5 97.4 60.5C96.4 50 92.2 42.2 86.3 36.4C85.9 36 85.5 35.5 84.8 35.8C85.5 36.7 86.3 37.3 87 38.1C91.9 43.7 95.5 50.8 96.5 60.5C95.3 60.6 94.2 60.5 93.1 60.5C92.3 50 88.7 42.3 83.7 36C80.9 36.7 77.9 37.4 74.6 37.4C74.1 37.4 73.4 37.3 73.1 37.4C72.8 37.5 72.5 38.1 72.2 38.5C68.2 44.3 65.2 51.6 64.6 60.5C63.5 60.5 62.3 60.5 61.2 60.5C62.2 50.3 66.2 43.1 71.5 37.3C70.7 36.9 70.3 37.6 69.8 38.2C64.9 43.7 61.2 51.1 60.4 60.5C59.4 60.6 58.2 60.5 57.1 60.5C58.1 50.6 62.2 43.7 67.7 38.2C66.3 38.4 65.4 39.6 64.5 40.6C60.2 45.6 57 52.1 56.2 60.4C56 60.5 55.5 60.5 55.3 60.4C56.2 51.5 59.6 44.8 64.6 39.9C64.9 39.6 65.3 39.3 65.4 38.8C63.1 39.1 61.6 37.4 61.9 35.1C61 34.6 60 34.3 59.2 33.8C57.5 32.9 56 31.9 54.5 30.6C53.6 29.8 51.9 28.6 52.6 26.8C53.2 25.2 55.3 24.4 57.1 23.7C61.3 22.1 67.2 20.9 72 20.4C71.8 20 71.5 19.7 71.2 19.3C70.2 18 69.3 15.4 70.1 13.4C70.7 13.7 71.8 14.1 72.6 13.7C73.2 13.4 73.5 12.2 73.8 11.4C74.4 9.9 74.9 7.9 75.5 6.5C76.1 6.8 77.4 7 77.9 6.6ZM78.7 9.1C78.5 8.7 78.1 7.6 77.6 7.5C77.1 7.4 76.6 7.8 76 7.6C75.6 8.8 75.1 9.9 74.8 11.1C75.9 10.1 78.4 10.1 79.7 10.7C79.4 10.3 79.1 9.7 78.7 9.1ZM82.3 14C80.6 12.8 79.9 10.8 77.1 11C75.8 11.1 75.1 11.6 74.5 12.4C73.9 13.2 73.7 14.3 72.9 14.6C72.3 14.8 71.3 14.7 70.7 14.6C70.7 15.9 70.9 17.1 71.5 18.1C71.8 18.8 72.8 20.2 73.5 20.4C74.2 20.6 74.9 20.3 75.7 20.4C74 17.9 73.7 12.4 77.5 12.2C77.8 12.2 78.3 12.2 78.7 12.3C81.4 13 82.1 17.6 80.5 20.1C80.3 20.4 79.9 20.6 79.9 20.9C81.3 21.2 82.5 20.2 83.2 19.2C84.2 17.7 85.1 15.5 84.4 13.4C83.8 13.8 83.2 14.1 82.3 14ZM75.1 16.1C75.1 16.4 75 16.9 75.2 17C75.6 16.5 77.4 16.4 77.4 17.2C77.1 17.2 77 17.1 76.8 17C76.9 17.7 75.7 17.9 75.7 17.1C75.1 17.2 75.2 17.9 75.4 18.4C75.6 19 76 19.9 76.4 20.2C77 20.8 77.9 20.7 78.9 20.9C79.9 20.1 80.7 18.9 80.6 17C80.4 16.9 80.3 16.8 80 16.8C80.2 17.5 78.9 17.6 79 16.9C78.6 16.9 78.7 17.4 78.3 17.2C78.5 16.3 79.9 16.3 80.5 16.6C80.5 16.2 80.5 15.9 80.4 15.6C78.5 15.7 76.8 15.9 75.1 16.1ZM102.5 25.6C101 26.6 99 27.8 96.6 27.7C94.8 27.7 92.9 26.7 91.3 26.1C86.5 24.1 81 22 74.5 22C74.3 22 74.1 22 73.9 22C70.2 22.2 66.5 22.7 63 23.5C61.4 23.9 59.8 24.2 58.1 24.8C56.7 25.3 53.8 26.3 54.6 28.4C55.1 29.5 56.5 30.7 57.7 31.4C58.1 31.7 58.7 32.1 59 32.1C59.2 32.1 59.8 31.9 60.1 31.7C62 30.9 63.1 29.6 63.9 27.8C64.1 27.4 64.4 25.9 64.9 25.8C65.2 25.7 65.6 25.8 65.7 26.2C65.9 26.8 65.2 27.9 64.9 28.4C63.9 30.5 62.6 32.1 60.5 32.9C61 33 61.5 33.2 62 33.3C61.9 32.6 62.1 32.3 62.5 32.1C63.5 31.8 64 33 64.2 33.9C64.9 34.1 65.3 34 65.8 33.8C66.4 33.5 66.8 32.8 67.3 32.6C67.7 32.5 68.2 32.4 68.6 32.6C68.8 32.7 68.8 32.9 68.9 33.2C69 33.4 69.2 33.6 69.2 33.8C69.3 34.2 69 34.6 69.2 34.9C69.4 35.2 70.6 35.3 71.2 35.3C77 36.2 82 35 86 33.5C86 33.2 85.9 33 85.9 32.6C85.9 32.2 86.4 31.4 86.7 31.3C87.1 31.2 87.7 31.2 88 31.3C88.5 31.5 88.8 32.3 89.4 32.4C90.1 32.2 90.7 32 91.3 31.8C91.6 31.3 91.9 30.7 92.7 30.7C93.1 30.7 93.1 31.1 93.5 31.1C93.8 31.1 94.6 30.8 95.1 30.7C95.6 30.6 96.3 30.4 96.8 30.4C99.2 30.3 100.8 31.7 101.9 32.9C102.1 33.1 102.8 34 103.3 33.6C103.6 33.3 103.3 32.8 103.1 32.3C102.5 31.1 102.2 29 102.9 27.6C103.1 27.1 103.6 26.7 103.9 26.2C104.2 25.8 104.7 25.2 104.4 24.6C103.4 24.7 103 25.3 102.5 25.6ZM91.2 33.1C90.5 33.6 89 32.9 88.4 32.4C88.1 32.1 87.9 31.6 87.4 31.8C87.4 32.7 88.3 33.3 88.8 33.7C88.3 33.5 87.8 33 87.5 32.5C87.4 32.2 87.3 31.7 86.9 31.7C86.4 31.8 86.7 32.6 86.9 32.9C87.3 33.7 87.8 34 88.3 34.4C87.8 34.2 87.4 33.9 87.1 33.4C86.9 33.1 86.8 32.6 86.5 32.3C86.2 32.9 86.5 33.6 86.8 34C87.1 34.4 87.6 34.7 87.9 35C87.4 34.8 87.1 34.5 86.8 34.1C86.7 33.9 86.6 33.6 86.4 33.6C86.2 34.3 86.8 34.9 87.2 35.3C88.3 36.3 90.5 36.5 91.8 35.5C93 34.6 92.5 32.9 92.7 31.2C91.5 30.8 91.8 32.7 91.2 33.1ZM62.6 32.7C62.9 34.4 62.3 35.9 63.3 36.8C64.4 37.9 66.8 37.9 68 36.9C68.5 36.5 69.1 35.8 69 35.1C68.5 35.5 68.2 36.3 67.4 36.5C67.6 36.3 67.9 36.2 68.1 35.9C68.5 35.5 69.4 34.3 68.7 33.7C68.3 34.6 67.9 35.4 67 35.7C67.3 35.4 67.8 35.2 68.1 34.7C68.4 34.3 68.9 33.2 68.3 33.1C67.9 33 67.6 33.9 67.4 34.2C67.1 34.6 66.8 34.9 66.3 35.1C66.9 34.6 67.7 34 67.7 33.1C67 33.2 66.7 34 66.1 34.3C65.5 34.6 64.4 34.8 63.9 34.4C63.7 33.8 63.7 32.2 62.6 32.7Z" fill="#4D59A1"/>
<path fill-rule="evenodd" clip-rule="evenodd" d="M79.7 10.8C78.3 10.2 75.9 10.2 74.8 11.2C75.1 9.9 75.6 8.8 76 7.7C76.7 7.9 77.2 7.5 77.6 7.6C78.1 7.7 78.5 8.7 78.7 9.2C79.1 9.7 79.4 10.3 79.7 10.8Z" fill="white"/>
<path fill-rule="evenodd" clip-rule="evenodd" d="M84.4 13.6C85 15.8 84.2 18 83.2 19.4C82.5 20.4 81.3 21.4 79.9 21.1C79.9 20.8 80.3 20.6 80.5 20.3C82 17.9 81.4 13.2 78.7 12.5C78.2 12.4 77.8 12.4 77.5 12.4C73.6 12.6 74 18.1 75.7 20.6C74.9 20.5 74.2 20.8 73.5 20.6C72.7 20.4 71.8 19 71.5 18.3C71 17.2 70.7 16 70.7 14.8C71.3 14.9 72.3 15 72.9 14.8C73.7 14.5 74 13.4 74.5 12.6C75.1 11.8 75.8 11.3 77.1 11.2C79.9 11 80.7 12.9 82.3 14.2C83.2 14.1 83.8 13.8 84.4 13.6Z" fill="white"/>
<path fill-rule="evenodd" clip-rule="evenodd" d="M80.3 15.6C80.4 15.9 80.4 16.2 80.4 16.6C79.7 16.4 78.3 16.3 78.2 17.2C78.6 17.4 78.5 16.9 78.9 16.9C78.8 17.6 80.1 17.5 79.9 16.8C80.1 16.8 80.3 16.9 80.5 17C80.6 19 79.8 20.1 78.8 20.9C77.9 20.7 76.9 20.8 76.3 20.2C75.9 19.8 75.5 19 75.3 18.4C75.1 17.8 75 17.2 75.6 17.1C75.6 17.9 76.7 17.7 76.7 17C76.9 17.1 77 17.2 77.3 17.2C77.3 16.4 75.5 16.5 75.1 17C74.9 16.8 75 16.4 75 16.1C76.8 15.9 78.5 15.7 80.3 15.6ZM77.4 18.5C77.5 18.9 78.4 18.8 78.5 18.5C78.4 18.2 77.8 18.5 77.4 18.5ZM77.3 19.7C77.5 20.5 79 20.1 78.8 19.5C78.5 19.8 77.7 20 77.3 19.7Z" fill="white"/>
<path fill-rule="evenodd" clip-rule="evenodd" d="M78.6 18.5C78.5 18.8 77.5 18.9 77.5 18.5C77.8 18.5 78.4 18.2 78.6 18.5Z" fill="#4D59A1"/>
<path fill-rule="evenodd" clip-rule="evenodd" d="M78.8 19.5C79 20.1 77.5 20.5 77.3 19.7C77.7 20 78.5 19.8 78.8 19.5Z" fill="#D24A43"/>
<path fill-rule="evenodd" clip-rule="evenodd" d="M104.1 24.6C104.4 25.2 103.9 25.8 103.6 26.2C103.3 26.7 102.9 27.1 102.6 27.6C101.9 28.9 102.2 31 102.8 32.3C103 32.8 103.4 33.3 103 33.6C102.5 34 101.8 33.2 101.6 32.9C100.5 31.7 99 30.3 96.5 30.4C95.9 30.4 95.3 30.6 94.8 30.7C94.3 30.8 93.5 31.2 93.2 31.1C92.9 31.1 92.8 30.7 92.4 30.7C91.6 30.6 91.3 31.2 91 31.8C90.4 32 89.8 32.3 89.1 32.4C88.6 32.2 88.3 31.5 87.7 31.3C87.4 31.2 86.8 31.2 86.4 31.3C86.2 31.4 85.7 32.2 85.6 32.6C85.6 32.9 85.7 33.1 85.7 33.5C81.8 35 76.7 36.2 71.2 35.4C70.6 35.3 69.4 35.2 69.2 35C69 34.7 69.2 34.4 69.2 33.9C69.2 33.7 69 33.5 68.9 33.3C68.8 33 68.8 32.8 68.6 32.7C68.2 32.5 67.6 32.6 67.3 32.7C66.7 32.8 66.4 33.6 65.8 33.9C65.3 34.1 64.8 34.2 64.2 34C64 33.2 63.5 31.9 62.5 32.2C62.1 32.3 61.9 32.7 62 33.4C61.5 33.3 61 33.1 60.5 33C62.6 32.2 63.9 30.6 64.9 28.5C65.1 28 65.8 26.9 65.7 26.3C65.6 25.9 65.2 25.9 64.9 25.9C64.4 26 64.1 27.5 63.9 27.9C63.1 29.6 62 31 60.1 31.8C59.8 31.9 59.2 32.2 59 32.2C58.7 32.2 58.1 31.7 57.7 31.5C56.6 30.8 55.1 29.6 54.6 28.5C53.8 26.4 56.7 25.4 58.1 24.9C59.8 24.3 61.3 23.9 63 23.6C66.5 22.9 70.2 22.3 73.9 22.1C74.1 22.1 74.3 22.1 74.5 22.1C81 22.2 86.5 24.2 91.3 26.2C92.9 26.9 94.8 27.8 96.6 27.8C99 27.8 101 26.7 102.5 25.7C103 25.3 103.4 24.7 104.1 24.6ZM58.6 30C60.6 29.7 60.4 26.4 58.2 26.7C56 26.9 56.4 30.3 58.6 30Z" fill="white"/>
<path fill-rule="evenodd" clip-rule="evenodd" d="M58.2 26.7C60.4 26.5 60.6 29.8 58.6 30C56.4 30.3 56 26.9 58.2 26.7Z" fill="#4D59A1"/>
<path fill-rule="evenodd" clip-rule="evenodd" d="M92.7 31.4C92.5 33.1 92.9 34.8 91.8 35.7C90.5 36.7 88.3 36.5 87.2 35.5C86.8 35.1 86.2 34.5 86.4 33.8C86.6 33.9 86.7 34.2 86.8 34.3C87.1 34.7 87.4 35 87.9 35.2C87.6 34.9 87.1 34.6 86.8 34.2C86.5 33.7 86.1 33 86.5 32.5C86.9 32.8 86.9 33.2 87.1 33.6C87.4 34 87.8 34.4 88.3 34.6C87.8 34.2 87.3 33.9 86.9 33.1C86.8 32.8 86.4 31.9 86.9 31.9C87.2 31.9 87.3 32.4 87.5 32.7C87.8 33.2 88.2 33.7 88.8 33.9C88.3 33.5 87.5 32.8 87.4 32C87.9 31.8 88.1 32.4 88.4 32.6C88.9 33.1 90.4 33.8 91.2 33.3C91.8 32.7 91.5 30.8 92.7 31.4Z" fill="white"/>
<path fill-rule="evenodd" clip-rule="evenodd" d="M64 34.4C64.6 34.7 65.7 34.5 66.2 34.3C66.8 34 67.1 33.2 67.8 33.1C67.8 34 67 34.6 66.4 35.1C66.9 35 67.1 34.7 67.5 34.2C67.7 33.9 68 33.1 68.4 33.1C69 33.2 68.4 34.3 68.2 34.7C67.9 35.2 67.3 35.4 67.1 35.7C68 35.4 68.4 34.5 68.8 33.7C69.5 34.2 68.6 35.5 68.2 35.9C68 36.1 67.6 36.3 67.5 36.5C68.3 36.3 68.5 35.5 69.1 35.1C69.2 35.8 68.6 36.5 68.1 36.9C66.9 37.9 64.5 37.9 63.4 36.8C62.4 35.8 63 34.4 62.7 32.7C63.7 32.2 63.7 33.8 64 34.4Z" fill="white"/>
<path fill-rule="evenodd" clip-rule="evenodd" d="M75.9 51.9C75.7 54.7 75.4 57.9 75.4 60.6C73.9 60.7 72.2 60.6 70.7 60.6C70.9 57.6 71.1 54.6 71.7 51.9C72.8 51.9 74.3 51.9 75.9 51.9Z" fill="#4D59A1"/>
<path fill-rule="evenodd" clip-rule="evenodd" d="M77 51.9C78.5 51.9 79.9 51.9 81.4 51.9C81.8 54.6 81.9 57.9 82 60.6C80.2 60.7 78.1 60.6 76.2 60.6C76.4 57.7 76.5 54.8 76.8 52C76.9 52 76.9 51.9 77 51.9Z" fill="#4D59A1"/>
<path fill-rule="evenodd" clip-rule="evenodd" d="M86.4 51.9C86.8 54.7 87.1 57.6 87.3 60.6C85.9 60.7 84.3 60.6 82.8 60.6C82.9 57.9 82.5 54.8 82.3 52C82.2 51.9 82.2 51.9 82.3 51.9C83.7 51.9 85.1 51.9 86.4 51.9Z" fill="#4D59A1"/>
<path fill-rule="evenodd" clip-rule="evenodd" d="M84.7 38.7C88.6 44.4 91.6 51.7 92.3 60.6C90.8 60.6 89.7 60.6 88.2 60.6C88.1 57.6 87.7 54.7 87.4 51.9C88.1 51.9 88.9 52 89.6 51.9C88.7 46.7 86.9 42.5 84.7 38.7Z" fill="#4D59A1"/>
<path fill-rule="evenodd" clip-rule="evenodd" d="M68.1 51.9C69 52.1 69.8 51.9 70.7 52C70.2 54.7 69.9 57.6 69.8 60.7C68.3 60.7 66.9 60.7 65.4 60.7C66.2 51.9 68.9 45.2 72.6 39.4C70.7 43 69.3 47.4 68.1 51.9Z" fill="#4D59A1"/>
<path fill-rule="evenodd" clip-rule="evenodd" d="M17.3 81.9C17.3 82.5 16.8 82.7 16.4 82.9C15.7 83.4 15 83.9 14.2 84.4C13.8 84.6 13.4 85 13 85.1C12.3 85.2 11.2 84.8 10.5 84.4C8.40001 83.3 7.1 81.3 6.7 78.7C5.7 73.3 8.1 67.9 13.4 68.1C14.1 68.1 14.8 68.2 15.3 68.4C15.7 68.6 16.5 68.9 16.6 69.4C16.7 70 16.3 71 16.1 71.7C16 72.1 15.8 73.6 15.4 73.7C14.8 73.8 14.6 72.4 14.5 72C14.1 70.7 13.3 69.7 11.6 70.4C9.80001 71.1 9.09999 73.7 9.29999 76.4C9.49999 79.5 11.8 82.6 15.7 82C16.1 82 16.7 81.5 17.3 81.9ZM132.3 68.5C137.2 68.1 140 71.4 140.3 75.9C140.6 81.1 137.8 85 133.3 85.1C128.5 85.2 125.6 81.6 125.5 76.9C125.5 74.6 126.3 72.5 127.3 71.2C128.4 69.8 130 68.7 132.3 68.5ZM131.1 70.5C127.5 72.3 128.2 79.6 130.6 82.3C131.5 83.3 133.1 84 134.7 83.4C138.8 81.8 137.9 73.5 135.1 71.1C134.4 70.5 133.4 70 132.2 70.2C131.7 70.3 131.3 70.3 131.1 70.5ZM55.7 68.8C56.1 69.6 56.4 70.5 56.7 71.5C56.8 71.8 57 72.2 56.7 72.4C55.9 72.5 55.9 71.6 55.2 71.3C54.7 71.1 53.1 70.8 52.6 71.2C52.1 71.6 52.3 73.1 52.3 74.2C52.3 76.2 52.2 78.9 52.3 80.9C52.4 82 52.4 83.2 53 83.6C53.3 83.8 54.6 83.8 54.4 84.5C54.2 85 52.9 84.8 52.1 84.8C51 84.8 50.2 85 49.8 84.6C49.4 84.2 49.6 82.3 49.6 81.3C49.6 78.6 49.7 75.3 49.7 72.8C49.7 72.3 49.7 71.6 49.5 71.4C49.1 70.9 47.4 71 46.8 71.3C46.2 71.6 46 72.3 45.3 72.4C44.9 72.2 45.2 71.8 45.3 71.5C45.6 70.6 45.9 69.5 46.4 68.8C49.3 68.7 52.9 68.7 55.7 68.8ZM146.6 84.7C146.3 85 145.8 84.9 145.3 84.9C144.3 84.9 143.6 84.9 142.9 84.9C142.5 84.9 142.1 85 141.8 84.8C141.2 84.4 141.4 82.4 141.4 81.5C141.5 79.1 141.5 76.3 141.5 74.6C141.5 73.5 141.6 72.7 141.5 71.3C141.4 70.7 141.1 70 140.7 69.7C140.3 69.5 139.6 69.4 139.7 69C139.8 68.5 141 68.7 141.6 68.7C143.8 68.7 147.3 68.3 149.2 69.1C150.6 69.7 151.4 71.3 151.2 73.5C151 76.4 148.8 77.8 146.1 78.3C145.4 78.4 144.6 78.5 144.4 79.1C144.2 79.7 144.4 80.7 144.4 81.3C144.5 82.4 144.6 83.3 145.3 83.7C145.8 84.1 146.6 83.8 146.6 84.7ZM144.3 72.4C144.3 72.8 144.3 73.2 144.3 73.7C144.3 74.3 144.2 76 144.5 76.3C145.2 77.2 147.3 76.1 147.8 75.6C148.9 74.3 148.2 71.6 147.1 70.9C146.7 70.7 145.9 70.6 145.5 70.7C144.3 70.7 144.3 71.2 144.3 72.4ZM23.2 68.7C23.5 68.7 23.9 68.7 24.2 68.7C24.8 69.7 25.2 70.9 25.7 72.1C26.8 75 27.8 78.2 29 81.1C29.5 82.4 29.7 83 30.8 83.6C31.2 83.8 31.9 84.1 31.8 84.6C31.7 85 30.2 84.8 29.6 84.8C28.9 84.8 27.9 85 27.4 84.7C26.9 84.4 26.7 83.2 26.5 82.6C26.2 81.7 26.1 81.2 25.7 80.5C25.1 80.5 24.5 80.5 23.8 80.5C23.1 80.5 22.3 80.3 21.7 80.5C21.1 80.7 20.3 82.7 20.7 83.4C21.2 84.2 22.6 83.7 22.4 84.7C22.2 85 21.8 84.8 21.5 84.8C20.6 84.8 19.5 84.8 18.5 84.8C17.9 84.4 17.8 84 17.8 83.2C17.9 82 18.5 80.6 18.9 79.4C19.7 77 20.6 74.6 21.5 72.2C22.1 71.1 22.6 69.5 23.2 68.7ZM21.7 78.4C22.7 78.4 24 78.5 24.7 78.3C24.8 77.4 24.4 76.7 24.1 75.9C23.8 75.1 23.6 74.3 23.2 73.7C23.2 73.7 23.2 73.6 23.1 73.7C22.6 75.2 22 76.6 21.7 78.4ZM34.9 75.1C35.9 75.2 37.2 75.1 38.4 75.1C39.6 75.1 40.9 75.3 41.6 74.8C41.6 72.9 42 70.7 40.9 69.9C40.7 69.7 39.8 69.7 39.8 69.2C39.8 68.7 41 68.9 41.7 68.9C42.8 68.9 44 68.7 44.4 69.4C44.8 70.1 44.5 72.1 44.5 73.2C44.5 76 44.5 78 44.5 80.7C44.5 82 44.6 83.3 45.2 83.9C45.6 84.2 46.9 84.3 46.8 84.9C46.7 85.4 44.9 85.2 44.3 85.2C43.2 85.2 42.2 85.3 41.8 84.9C41.4 84.4 41.6 82.3 41.6 81.4C41.6 80.2 41.7 79.2 41.6 77.8C39.5 77.7 37 77.7 35 77.8C35.1 79.8 34.5 83.3 35.9 84.1C36.3 84.3 37.3 84.2 37.2 84.9C37.2 85.2 35.8 85 35 85C33.7 85 32.5 85.2 32.2 84.5C31.9 83.9 32.2 82.4 32.2 81.3C32.2 79.1 32.2 76.7 32.2 74.3C32.2 72.4 32.5 70.5 31.4 69.8C31.1 69.6 29.9 69.5 30.5 68.8C31.4 69 33.8 68.3 34.6 68.9C35.2 69.3 34.9 70.4 34.9 71.2C35 72.6 35 73.7 34.9 75.1ZM61.6 68.7C63.2 72.4 64.8 77.2 66.4 81.1C66.9 82.4 67 83 68.1 83.7C68.5 83.9 69.2 84.1 69.1 84.6C69 85.1 67.8 85 67 85C66.1 85 65.1 85.1 64.6 84.8C64.1 84.5 63.9 83.4 63.7 82.7C63.4 81.9 63.2 81.3 62.9 80.6C61.5 80.8 60.1 80.3 59 80.6C58.5 80.7 58.3 81.4 58.2 81.8C58.1 82.2 57.7 82.8 57.9 83.4C58 83.8 58.5 84 58.9 84.1C59.3 84.2 59.9 84.2 59.8 84.8C59.7 85.2 58.7 85.1 58 85.1C56.5 85.1 55.5 85.3 55.3 84.1C55.2 83.5 55.5 82.6 55.7 81.9C56.8 78.1 58.3 74.3 59.7 70.6C60 70 60.2 69.2 60.5 68.9C60.7 68.6 61.2 68.8 61.6 68.7ZM59.1 78.4C60.1 78.4 61.4 78.6 62.2 78.3C61.9 76.6 61.3 75.1 60.6 73.7C60 75.1 59.3 76.8 59.1 78.4ZM85.1 68.8C85.5 69.3 85.4 70.2 85.4 71C85.4 71.8 85.6 72.7 85.2 73.2C84.5 72.9 84.6 72.1 84.2 71.6C84 71.3 83.6 71 83.3 70.8C82.5 70.4 80.2 70.2 79.8 71C79.5 71.5 79.7 72.6 79.7 73.3C79.7 74.2 79.6 74.9 79.7 75.7C80.9 76.2 82.1 75.9 83.1 75.8C85.5 75.7 87.5 76.9 87.3 79.6C87 83.2 84.3 84.9 80.4 85C79.9 85 79.4 85 78.8 85C78.1 85 77.1 85.2 76.8 84.6C76.5 84 76.7 82.1 76.8 81.3C76.9 78.8 76.8 77 76.8 74.8C76.8 72.9 77.1 70.7 76.1 69.9C75.9 69.7 74.2 69.2 75.3 68.8C75.9 68.6 77 68.8 77.8 68.8C80.2 68.7 82.7 68.7 85.1 68.8ZM79.9 77.2C79.4 77.7 79.6 79.5 79.7 80.3C79.7 80.9 79.7 82.8 80.1 83.1C80.8 83.6 82.5 83 82.9 82.8C84.3 82 85 79 83.7 77.7C83.2 77.2 82.2 77 81.3 77C80.8 77 80.2 76.9 79.9 77.2ZM87.5 68.8C87.5 68.8 87.5 68.7 87.5 68.8C89.3 68.6 91 68.8 92.8 68.8C94.7 68.8 96.4 68.9 97.4 69.8C98.4 70.7 98.8 72.3 98.6 73.9C98.3 76.5 96.7 77.8 94.4 78.4C93.4 78.6 92 78.7 91.8 79.4C91.6 80.1 91.8 81.2 91.8 81.9C91.9 82.8 92 83.6 92.5 83.9C92.9 84.2 94.2 84.3 94 84.8C93.9 85.2 93.5 85.1 93 85.1C92.5 85.1 92 85.1 91.7 85.1C91 85.1 89.9 85.3 89.3 85.1C88.5 84.8 88.8 83.2 88.8 82C88.9 79.6 88.8 77.5 88.8 74.9C88.8 72.9 89.1 70.8 88 70C87.9 69.9 87 69.8 86.9 69.4C87 68.8 87.4 68.8 87.5 68.8ZM91.9 71.1C91.7 71.4 91.8 71.9 91.8 72.3C91.8 73.3 91.4 75.7 91.8 76.3C92.3 77.1 94 76.6 94.7 76.1C95.9 75.1 95.9 72.4 94.8 71.3C94.4 70.9 93.7 70.6 93 70.7C92.5 70.7 92.1 70.7 91.9 71.1ZM108.5 73.2C107.8 73 107.9 72.2 107.6 71.7C107.2 71 106.4 70.5 105.2 70.4C104.5 70.4 103.2 70.3 102.9 70.7C102.7 71 102.8 72.2 102.8 72.8C102.8 73.7 102.8 74.3 102.8 75.1C104.5 75.4 106.1 74.9 107.5 75C107.7 75.8 107.3 76.7 107.1 77.3C106.3 77.8 103.7 76.9 103 77.6C102.8 77.9 102.9 78.9 102.9 79.5C102.9 80.9 102.7 82.5 103.9 82.8C105.2 83.2 107.5 82.7 108.2 82.1C108.6 81.8 108.8 81.3 109 80.9C109.2 80.5 109.4 80 110 79.9C110.3 80.8 109.9 81.5 109.8 82.3C109.7 83 109.7 84.3 109.2 84.6C108.8 84.8 107.6 84.7 107 84.7C105.3 84.7 104.2 84.7 102.4 84.7C101.7 84.7 100.6 84.8 100.3 84.6C99.7 84.2 100 82.6 100 81.5C100 78.9 100 77.3 100 74.7C100 72.8 100.3 70.4 99.3 69.6C99.2 69.5 98.2 69.4 98.2 69C98.2 68.8 98.4 68.6 98.5 68.6C99 68.4 100.2 68.6 101 68.6C102.8 68.6 104.1 68.6 106 68.6C106.6 68.6 108 68.4 108.4 68.7C108.8 69 108.7 70.3 108.7 70.9C108.7 71.7 108.8 72.6 108.5 73.2ZM118.2 75.2C119.1 73.1 119.8 70.7 121 68.8C121.9 68.7 123.2 68.7 124.1 68.8C124.6 69.7 124.4 70.9 124.4 72C124.4 75.5 124.2 77.9 124.4 81.3C124.5 82.2 124.6 83.5 125.4 83.9C125.9 84.1 126.8 84 126.7 84.6C126.7 85.1 125 84.9 124.3 84.9C123.5 84.9 122.2 85.1 121.8 84.7C121.4 84.3 121.6 82.7 121.6 81.7C121.6 78.3 121.7 75.7 121.6 72.5C121.3 72.6 121.2 73 121.1 73.3C120.1 75.2 119.4 77.6 118.5 79.7C118.2 79.7 117.7 79.8 117.5 79.7C117 79.2 116.9 78.5 116.6 77.9C115.9 76.1 114.9 74.2 113.9 72.6C113.8 75.1 113.7 78.7 113.9 81.6C114 82.5 114.2 83.5 114.7 83.9C115.2 84.3 116.1 83.9 116.2 84.9C115.8 85.2 114.9 85.1 114 85.1C113 85.1 111.9 85.3 111.7 84.6C111.4 83.9 111.7 82.3 111.7 81.2C111.7 79.9 111.7 79.2 111.7 78.2C111.7 75.8 111.9 73.2 111.7 71.4C111.6 70.9 111.3 70.3 111 70C110.7 69.7 110 69.7 109.9 69.4C109.8 68.7 112.1 69 112.8 69C113.6 69 114.7 68.8 115.3 69C115.6 69.1 116 70 116.2 70.5C116.9 71.9 117.6 73.5 118.2 75.2Z" fill="white"/>
<path fill-rule="evenodd" clip-rule="evenodd" d="M78.6 0C100.4 0 118 17.6 118 39.4C118 47.2 115.7 54.5 111.8 60.6H148.8C153.3 60.6 156.9 64.3 156.9 68.7V85C156.9 89.5 153.2 93.1 148.8 93.1H8.10001C3.70001 93.1 0 89.4 0 85V68.7C0 64.2 3.70001 60.6 8.10001 60.6H45.4C41.5 54.5 39.2 47.2 39.2 39.4C39.2 17.6 56.9 0 78.6 0ZM8.10001 63.2C5.00001 63.2 2.60001 65.7 2.60001 68.7V85C2.60001 88.1 5.10001 90.5 8.10001 90.5H148.8C151.9 90.5 154.3 88 154.3 85V68.7C154.3 65.6 151.8 63.2 148.8 63.2C101.9 63.2 55 63.2 8.10001 63.2ZM48.5 60.6H108.7C112.9 54.6 115.4 47.3 115.4 39.4C115.4 19.1 98.9 2.6 78.6 2.6C58.3 2.6 41.8 19.1 41.8 39.4C41.8 47.3 44.3 54.6 48.5 60.6Z" fill="#BD9D61"/>
</svg>
