<svg width="176" height="184" fill="none" xmlns="http://www.w3.org/2000/svg"><g filter="url(#filter0_dddd)"><path fill-rule="evenodd" clip-rule="evenodd" d="M148.25 71.989l1.357.783 13.643 7.877 6 3.464c2.667 1.54 2.667 5.389 0 6.928l-6 3.465-13.643 7.876-1.357.784L45.5 162.489l-1.357.783-13.643 7.877-6 3.464c-2.667 1.54-6-.385-6-3.464V146.9a.93.93 0 0 1 .463-.803l26.305-15.187a.155.155 0 0 1 .232.134c0 .119.129.193.232.134l69.518-40.136c2.667-1.54 2.667-5.39 0-6.929L45.582 43.891a.055.055 0 0 0-.082.047.055.055 0 0 1-.082.048L18.665 28.54a.33.33 0 0 1-.165-.285V4.006c0-3.08 3.333-5.004 6-3.464l6 3.464 13.643 7.877 1.357.783L148.25 71.99z" fill="#4D79A1"/><path d="M71.75 90.814l-46.5 26.847c-2.333 1.347-5.25-.337-5.25-3.031V60.936c0-2.694 2.917-4.378 5.25-3.03l46.5 26.846c2.333 1.347 2.333 4.715 0 6.062z" fill="#4D79A2" stroke="#7FADD8"/></g><defs><filter id="filter0_dddd" x="14.5" y="0" width="160.75" height="183.155" filterUnits="userSpaceOnUse" color-interpolation-filters="sRGB"><feFlood flood-opacity="0" result="BackgroundImageFix"/><feColorMatrix in="SourceAlpha" values="0 0 0 0 0 0 0 0 0 0 0 0 0 0 0 0 0 0 127 0"/><feOffset dy="4"/><feGaussianBlur stdDeviation="2"/><feColorMatrix values="0 0 0 0 0 0 0 0 0 0 0 0 0 0 0 0 0 0 0.25 0"/><feBlend in2="BackgroundImageFix" result="effect1_dropShadow"/><feColorMatrix in="SourceAlpha" values="0 0 0 0 0 0 0 0 0 0 0 0 0 0 0 0 0 0 127 0"/><feOffset dy="4"/><feGaussianBlur stdDeviation="2"/><feColorMatrix values="0 0 0 0 0 0 0 0 0 0 0 0 0 0 0 0 0 0 0.25 0"/><feBlend in2="effect1_dropShadow" result="effect2_dropShadow"/><feColorMatrix in="SourceAlpha" values="0 0 0 0 0 0 0 0 0 0 0 0 0 0 0 0 0 0 127 0"/><feOffset dy="4"/><feGaussianBlur stdDeviation="2"/><feColorMatrix values="0 0 0 0 0 0 0 0 0 0 0 0 0 0 0 0 0 0 0.25 0"/><feBlend in2="effect2_dropShadow" result="effect3_dropShadow"/><feColorMatrix in="SourceAlpha" values="0 0 0 0 0 0 0 0 0 0 0 0 0 0 0 0 0 0 127 0"/><feOffset dy="4"/><feGaussianBlur stdDeviation="2"/><feColorMatrix values="0 0 0 0 0 0 0 0 0 0 0 0 0 0 0 0 0 0 0.25 0"/><feBlend in2="effect3_dropShadow" result="effect4_dropShadow"/><feBlend in="SourceGraphic" in2="effect4_dropShadow" result="shape"/></filter></defs></svg>