<svg width="280" height="199" viewBox="0 0 280 199" fill="none" xmlns="http://www.w3.org/2000/svg">
<path d="M262.5 175.489C241.318 180.611 217.716 179.372 203 158.877C175 119.882 108.5 102.157 3.5 151.787C157.5 105.702 178.5 155.332 199.5 169.512C213.085 178.685 234.5 183.692 262.5 175.489Z" fill="#F17B24"/>
<path d="M280 183.692C266 190.782 225.528 209.815 196 190.782C157.5 165.967 140 144.697 73.5 151.787C133.176 134.062 168 158.877 196 183.692C218.4 203.544 261.333 191.964 280 183.692Z" fill="#F17B24"/>
<path d="M147.065 73.911H132.86V87.636H147.065V73.911Z" fill="#F17B24"/>
<path d="M68.2051 116.337L56 119.882V102.157H0L140 17.076L183.924 44.4538V0H210V60.7071L276.5 102.157H224V158.877L210 144.697V77.3415L140 34.8011L68.2051 77.3415V116.337Z" fill="#F17B24"/>
</svg>
