<svg width="1356" height="216" fill="none" xmlns="http://www.w3.org/2000/svg"><path d="M361.65 174.8c-13.183 0-22.867-3.325-29.05-9.975-6.183-6.65-9.275-17.675-9.275-33.075 0-12.25 2.042-25.433 6.125-39.55 4.2-14.117 10.85-26.192 19.95-36.225 9.217-10.15 20.883-15.225 35-15.225 8.75 0 15.808 1.925 21.175 5.775 5.367 3.85 8.05 9.742 8.05 17.675 0 5.017-.992 8.983-2.975 11.9-1.983 2.8-5.075 4.2-9.275 4.2s-7.525-1.517-9.975-4.55c2.1-1.05 3.967-3.15 5.6-6.3 1.633-3.15 2.45-6.417 2.45-9.8 0-3.15-.875-5.717-2.625-7.7-1.633-1.983-4.317-2.975-8.05-2.975-6.183 0-12.075 4.258-17.675 12.775-5.6 8.4-10.15 19.017-13.65 31.85-3.383 12.833-5.075 25.2-5.075 37.1 0 8.867 1.517 15.633 4.55 20.3 3.033 4.667 8.517 7 16.45 7 6.883 0 13.242-1.517 19.075-4.55 5.833-3.033 10.85-7.35 15.05-12.95l4.025 1.75c-2.917 7.35-7.233 13.475-12.95 18.375s-11.842 8.517-18.375 10.85c-6.533 2.217-12.717 3.325-18.55 3.325zm151.737-1.75c-7.116 0-12.366-1.867-15.75-5.6-3.266-3.85-4.9-8.575-4.9-14.175 0-2.45.292-5.192.875-8.225.584-3.15 1.167-6.183 1.75-9.1.7-2.917 1.167-4.783 1.4-5.6a561.371 561.371 0 0 0 2.625-12.075c.817-3.967 1.225-7.175 1.225-9.625 0-5.95-2.1-8.925-6.3-8.925-3.033 0-5.716 1.517-8.05 4.55-2.333 2.917-4.2 6.767-5.6 11.55L468.762 172h-25.2l12.775-60.375c.35-1.4.525-2.858.525-4.375 0-5.133-1.75-7.7-5.25-7.7-3.266 0-6.125 1.517-8.575 4.55-2.333 2.917-4.2 6.825-5.6 11.725L425.537 172h-25.2l18.55-87.5h25.2l-1.925 9.1c5.95-6.65 13.067-9.975 21.35-9.975 10.267 0 16.275 5.017 18.025 15.05 6.417-9.917 14.525-14.875 24.325-14.875 5.95 0 10.675 1.633 14.175 4.9 3.5 3.267 5.25 8.225 5.25 14.875 0 3.383-.408 7.175-1.225 11.375-.816 4.083-1.983 9.1-3.5 15.05a475.523 475.523 0 0 0-2.625 10.675c-.7 3.383-1.05 6.067-1.05 8.05 0 2.333.525 4.142 1.575 5.425 1.05 1.283 2.859 1.925 5.425 1.925 3.5 0 6.3-1.225 8.4-3.675 2.1-2.567 4.2-6.475 6.3-11.725h7.35c-4.316 12.833-9.333 21.467-15.05 25.9-5.6 4.317-11.433 6.475-17.5 6.475zm38.492-95.025h25.2l-2.8 13.125c5.833-5.017 12.658-7.525 20.475-7.525 6.533 0 11.725 2.158 15.575 6.475 3.85 4.317 5.775 11.375 5.775 21.175 0 9.217-1.342 18.55-4.025 28-2.683 9.333-7.233 17.325-13.65 23.975-6.417 6.533-14.875 9.8-25.375 9.8-7.467 0-12.425-2.1-14.875-6.3l-9.1 42.7-26.425 6.3 29.225-137.725zm15.75 79.8c5.6 0 10.208-2.625 13.825-7.875 3.733-5.25 6.417-11.492 8.05-18.725 1.75-7.35 2.625-14.175 2.625-20.475 0-9.683-2.917-14.525-8.75-14.525-2.1 0-4.258.758-6.475 2.275-2.1 1.517-3.967 3.617-5.6 6.3l-10.325 49c.933 2.683 3.15 4.025 6.65 4.025zm78.36 14.875c-8.633 0-15.458-2.217-20.475-6.65-5.016-4.433-7.525-11.433-7.525-21 0-7.933 1.634-16.742 4.9-26.425 3.267-9.683 8.517-18.025 15.75-25.025 7.234-7.117 16.334-10.675 27.3-10.675 14.934 0 22.4 9.333 22.4 28v.175c.35.117.992.175 1.925.175 3.85 0 8.284-.992 13.3-2.975 5.017-2.1 9.567-4.608 13.65-7.525l1.575 4.725c-3.383 3.617-7.816 6.708-13.3 9.275-5.366 2.45-11.258 4.2-17.675 5.25-.933 10.617-3.325 19.892-7.175 27.825-3.85 7.933-8.808 14.058-14.875 18.375-6.066 4.317-12.658 6.475-19.775 6.475zm7-15.75c2.8 0 5.6-1.575 8.4-4.725 2.8-3.267 5.25-7.642 7.35-13.125 2.1-5.6 3.617-11.783 4.55-18.55-3.15-.7-4.725-3.15-4.725-7.35 0-4.783 1.809-7.933 5.425-9.45-.233-3.85-.816-6.475-1.75-7.875-.933-1.517-2.566-2.275-4.9-2.275-3.85 0-7.583 2.8-11.2 8.4-3.616 5.6-6.533 12.308-8.75 20.125-2.216 7.817-3.325 14.7-3.325 20.65 0 5.6.642 9.392 1.925 11.375 1.284 1.867 3.617 2.8 7 2.8zm89.855-81.025c-7.234 0-12.834-1.342-16.8-4.025-3.967-2.683-5.95-6.358-5.95-11.025 0-3.85 1.05-6.942 3.15-9.275 2.216-2.333 5.075-3.5 8.575-3.5 3.383 0 6.008.817 7.875 2.45 1.983 1.633 2.975 3.967 2.975 7 0 3.733-1.4 6.533-4.2 8.4 1.516.467 3.85.7 7 .7 5.6 0 10.791-1.575 15.575-4.725 4.783-3.15 8.575-8.4 11.375-15.75h7.35c-3.734 10.967-8.634 18.667-14.7 23.1-5.95 4.433-13.359 6.65-22.225 6.65zm-28.175 97.125c-5.6 0-10.15-1.75-13.65-5.25-3.384-3.5-5.075-8.75-5.075-15.75 0-2.917.466-6.708 1.4-11.375l11.9-56.175h25.2l-12.6 59.5c-.35 1.4-.525 2.858-.525 4.375 0 5.133 1.75 7.7 5.25 7.7 3.266 0 6.066-1.342 8.4-4.025 2.333-2.8 4.2-6.592 5.6-11.375l11.9-56.175h25.2l-12.6 59.5c-.467 1.75-.7 3.617-.7 5.6 0 2.333.525 4.025 1.575 5.075 1.166.933 3.033 1.4 5.6 1.4 1.866 0 3.208-.117 4.025-.35.933-.35 1.516-.583 1.75-.7-.467 5.95-2.509 10.442-6.125 13.475-3.617 3.033-8.05 4.55-13.3 4.55-4.9 0-8.867-1.458-11.9-4.375-2.917-2.917-4.667-7-5.25-12.25-3.967 6.417-8.167 10.792-12.6 13.125-4.317 2.333-8.809 3.5-13.475 3.5zm104.647 1.75c-13.183 0-22.867-3.325-29.05-9.975-6.183-6.65-9.275-17.675-9.275-33.075 0-12.25 2.042-25.433 6.125-39.55 4.2-14.117 10.85-26.192 19.95-36.225 9.217-10.15 20.883-15.225 35-15.225 8.75 0 15.808 1.925 21.175 5.775 5.367 3.85 8.05 9.742 8.05 17.675 0 5.017-.992 8.983-2.975 11.9-1.983 2.8-5.075 4.2-9.275 4.2s-7.525-1.517-9.975-4.55c2.1-1.05 3.967-3.15 5.6-6.3 1.633-3.15 2.45-6.417 2.45-9.8 0-3.15-.875-5.717-2.625-7.7-1.633-1.983-4.317-2.975-8.05-2.975-6.183 0-12.075 4.258-17.675 12.775-5.6 8.4-10.15 19.017-13.65 31.85-3.383 12.833-5.075 25.2-5.075 37.1 0 8.867 1.517 15.633 4.55 20.3 3.033 4.667 8.517 7 16.45 7 6.883 0 13.242-1.517 19.075-4.55 5.833-3.033 10.85-7.35 15.05-12.95l4.025 1.75c-2.917 7.35-7.233 13.475-12.95 18.375s-11.842 8.517-18.375 10.85c-6.533 2.217-12.717 3.325-18.55 3.325zm62.662-1.75c-5.6 0-10.15-1.75-13.65-5.25-3.383-3.5-5.075-8.75-5.075-15.75 0-2.917.467-6.708 1.4-11.375l11.9-56.175h25.2l-12.6 59.5c-.35 1.75-.525 3.383-.525 4.9 0 4.783 1.75 7.175 5.25 7.175 3.267 0 6.067-1.342 8.4-4.025 2.334-2.8 4.2-6.592 5.6-11.375l11.9-56.175h25.2l-12.6 59.5c-.466 1.75-.7 3.617-.7 5.6 0 2.333.525 4.025 1.575 5.075 1.167.933 3.034 1.4 5.6 1.4 3.267 0 6.067-1.4 8.4-4.2 2.45-2.8 4.375-6.533 5.775-11.2h7.35c-4.316 12.6-9.683 21.175-16.1 25.725-6.3 4.433-12.658 6.65-19.075 6.65-5.016 0-9.041-1.4-12.075-4.2-2.916-2.8-4.666-6.942-5.25-12.425-3.966 6.417-8.166 10.792-12.6 13.125-4.316 2.333-8.75 3.5-13.3 3.5zm96.055 0c-8.634 0-15.342-2.217-20.125-6.65-4.784-4.55-7.175-11.608-7.175-21.175 0-8.05 1.575-16.917 4.725-26.6 3.266-9.683 8.4-18.025 15.4-25.025 7.116-7.117 16.1-10.675 26.95-10.675 7.002 0 11.962 1.517 14.872 4.55 3.04 3.033 4.55 6.883 4.55 11.55 0 4.083-.87 7.233-2.62 9.45-1.75 2.217-3.97 3.325-6.65 3.325-1.99 0-4.03-.7-6.13-2.1 1.4-3.85 2.1-7.292 2.1-10.325 0-2.217-.41-3.967-1.22-5.25-.82-1.283-2.04-1.925-3.677-1.925-3.5 0-7 2.858-10.5 8.575-3.5 5.717-6.359 12.658-8.575 20.825-2.217 8.167-3.325 15.517-3.325 22.05 0 5.717.991 9.625 2.975 11.725 1.983 1.983 5.191 2.975 9.625 2.975 6.3 0 11.667-1.458 16.097-4.375 4.55-2.917 9.51-7.35 14.88-13.3h5.95c-12.95 21.583-28.994 32.375-48.127 32.375zm148.537 0c-7.12 0-12.37-1.867-15.75-5.6-3.27-3.85-4.9-8.575-4.9-14.175 0-2.45.29-5.192.88-8.225.58-3.15 1.16-6.183 1.75-9.1.7-2.917 1.16-4.783 1.4-5.6.93-4.083 1.8-8.108 2.62-12.075.82-3.967 1.23-7.175 1.23-9.625 0-5.95-2.1-8.925-6.3-8.925-3.04 0-5.72 1.517-8.05 4.55-2.34 2.917-4.2 6.767-5.6 11.55L1081.95 172h-25.2l12.77-60.375c.35-1.4.53-2.858.53-4.375 0-5.133-1.75-7.7-5.25-7.7-3.27 0-6.13 1.517-8.58 4.55-2.33 2.917-4.2 6.825-5.6 11.725L1038.72 172h-25.2l18.55-87.5h25.2l-1.92 9.1c5.95-6.65 13.06-9.975 21.35-9.975 10.26 0 16.27 5.017 18.02 15.05 6.42-9.917 14.53-14.875 24.33-14.875 5.95 0 10.67 1.633 14.17 4.9 3.5 3.267 5.25 8.225 5.25 14.875 0 3.383-.41 7.175-1.22 11.375-.82 4.083-1.99 9.1-3.5 15.05-.94 3.617-1.81 7.175-2.63 10.675-.7 3.383-1.05 6.067-1.05 8.05 0 2.333.53 4.142 1.58 5.425 1.05 1.283 2.85 1.925 5.42 1.925 3.5 0 6.3-1.225 8.4-3.675 2.1-2.567 4.2-6.475 6.3-11.725h7.35c-4.32 12.833-9.33 21.467-15.05 25.9-5.6 4.317-11.43 6.475-17.5 6.475zm50.22 0c-8.64 0-15.34-2.217-20.13-6.65-4.78-4.55-7.17-11.608-7.17-21.175 0-8.05 1.57-16.917 4.72-26.6 3.15-9.683 8.29-18.025 15.4-25.025 7.12-7.117 16.16-10.675 27.13-10.675 12.83 0 19.25 5.6 19.25 16.8 0 6.533-1.87 12.542-5.6 18.025-3.74 5.483-8.69 9.917-14.88 13.3-6.18 3.267-12.77 5.133-19.77 5.6-.24 3.5-.35 5.833-.35 7 0 5.717.99 9.625 2.97 11.725 1.99 1.983 5.19 2.975 9.63 2.975 6.3 0 11.66-1.458 16.1-4.375 4.55-2.917 9.51-7.35 14.87-13.3h5.95c-12.95 21.583-28.99 32.375-48.12 32.375zm.35-44.8c4.31-.233 8.4-1.75 12.25-4.55 3.96-2.8 7.11-6.358 9.45-10.675 2.45-4.317 3.67-8.867 3.67-13.65 0-4.783-1.46-7.175-4.37-7.175-4.2 0-8.34 3.675-12.43 11.025-3.96 7.35-6.82 15.692-8.57 25.025zm55.61 44.8c-6.3 0-11.26-1.925-14.87-5.775-3.74-3.967-5.6-8.75-5.6-14.35 0-3.967.93-7.117 2.8-9.45 1.86-2.45 4.43-3.675 7.7-3.675 2.8 0 5.07.875 6.82 2.625s2.63 3.85 2.63 6.3c0 2.8-.7 4.958-2.1 6.475-1.4 1.4-3.04 1.983-4.9 1.75 0 4.433 2.27 6.65 6.82 6.65 3.27 0 5.95-1.167 8.05-3.5 2.1-2.45 3.91-6.417 5.43-11.9 1.63-5.483 3.38-13.417 5.25-23.8 2.56-14.817 6.41-25.142 11.55-30.975 5.25-5.95 12.07-8.925 20.47-8.925h7.88l3.32 67.2 33.08-67.2h28.35l-12.78 59.5c-.58 2.333-.87 4.2-.87 5.6 0 4.317 2.45 6.475 7.35 6.475 2.1 0 3.96-.35 5.6-1.05-.47 5.833-2.57 10.325-6.3 13.475-3.62 3.033-7.94 4.55-12.95 4.55-5.25 0-9.51-1.75-12.78-5.25-3.15-3.5-4.72-8.75-4.72-15.75 0-1.75.4-4.842 1.22-9.275.93-4.433 2.39-11.2 4.38-20.3l2.97-14L1294.88 172h-20.65l-4.2-73.325c-2.34 2.333-4.38 5.833-6.13 10.5-1.63 4.55-3.21 10.792-4.72 18.725-2.22 11.433-4.26 20.183-6.13 26.25-1.75 6.067-4.26 10.733-7.52 14-3.15 3.267-7.41 4.9-12.78 4.9zm-942.312 15.857c-20.048 4.813-42.385 3.649-56.313-15.61-26.5-36.644-89.437-53.301-188.813-6.663 145.75-43.306 165.626 3.331 185.5 16.656 12.857 8.62 33.126 13.325 59.626 5.617z" fill="#F17B24"/><path d="M307 196.615c-13.25 6.663-51.554 24.548-79.5 6.663-36.438-23.319-53-43.307-115.938-36.644 56.48-16.656 89.438 6.663 115.938 29.981 21.2 18.655 61.833 7.773 79.5 0zM188.029 87.709h-13.444v12.897h13.444V87.709z" fill="#F17B24"/><path d="M120.748 129.563l-11.551 3.331v-16.656h-53l132.5-79.95 41.57 25.726V20.241h24.68v57.047l62.937 38.95h-49.687v53.3l-13.25-13.325V92.919l-66.25-39.975-67.949 39.975v36.644z" fill="#F17B24"/><path d="M190.395 103.34v12.898h13.444V103.34h-13.444zm-2.366 0h-13.444v12.898h13.444V103.34zm2.366-2.734V87.709h13.444v12.897h-13.444z" fill="#F17B24"/></svg>