<svg data-name="Слой 1" xmlns="http://www.w3.org/2000/svg" viewBox="0 0 741 754"><defs><linearGradient id="a" x1="623.95" y1="623.95" x2="107.05" y2="107.05" gradientUnits="userSpaceOnUse"><stop offset="0" stop-color="#cce0f4"/><stop offset=".09" stop-color="#c3dcf2"/><stop offset=".24" stop-color="#a9d2ee"/><stop offset=".43" stop-color="#80c2e7"/><stop offset=".65" stop-color="#47acde"/><stop offset=".8" stop-color="#1e9cd7"/><stop offset=".91" stop-color="#0075be"/><stop offset=".99" stop-color="#005b97"/></linearGradient><linearGradient id="b" x1="513.17" y1="667.76" x2="720.39" y2="308.83" gradientTransform="matrix(-1 0 0 1 1270.32 0)" gradientUnits="userSpaceOnUse"><stop offset="0" stop-color="#fff"/><stop offset=".13" stop-color="#ffead3"/><stop offset=".42" stop-color="#ffbc72"/><stop offset=".63" stop-color="#ff9e36"/><stop offset=".73" stop-color="#ff931e"/></linearGradient></defs><circle cx="375.5" cy="388.5" r="365.5" fill="#b3b3b3"/><circle cx="365.5" cy="365.5" r="365.5" fill="url(#a)"/><path d="M135.97 380.94l212.72-214.36.47 121.92h267.66a12 12 0 0 1 12 12v176a12 12 0 0 1-12 12H349.93l.47 122.14-214.37-212.73a12 12 0 0 1-.06-16.97z" fill="#999" opacity=".7"/><path d="M390.47 492.44l212.72-214.36.47 121.92h267.66a12 12 0 0 1 12 12v176a12 12 0 0 1-12 12H604.43l.47 122.14-214.37-212.73a12 12 0 0 1-.06-16.97z" transform="translate(-269.5 -134.5)" stroke="#000" stroke-miterlimit="10" stroke-width=".5" fill="url(#b)"/></svg>