<svg data-name="Слой 1" xmlns="http://www.w3.org/2000/svg" viewBox="0 0 741 754"><defs><linearGradient id="a" x1="623.95" y1="623.95" x2="107.05" y2="107.05" gradientUnits="userSpaceOnUse"><stop offset="0" stop-color="#cce0f4"/><stop offset=".09" stop-color="#c3dcf2"/><stop offset=".24" stop-color="#a9d2ee"/><stop offset=".43" stop-color="#80c2e7"/><stop offset=".65" stop-color="#47acde"/><stop offset=".8" stop-color="#1e9cd7"/><stop offset=".91" stop-color="#0075be"/><stop offset=".99" stop-color="#005b97"/></linearGradient><linearGradient id="b" x1="719.67" y1="691.81" x2="512.78" y2="333.46" gradientUnits="userSpaceOnUse"><stop offset="0" stop-color="#fff"/><stop offset=".13" stop-color="#ffead3"/><stop offset=".42" stop-color="#ffbc72"/><stop offset=".63" stop-color="#ff9e36"/><stop offset=".73" stop-color="#ff931e"/></linearGradient></defs><circle cx="375.5" cy="388.5" r="365.5" fill="#b3b3b3"/><circle cx="365.5" cy="365.5" r="365.5" fill="url(#a)"/><path d="M610.35 386.94L397.62 172.58l-.46 121.92H129.5a12 12 0 0 0-12 12v176a12 12 0 0 0 12 12h266.89l-.47 122.14 214.36-212.73a12 12 0 0 0 .07-16.97z" fill="#999" opacity=".7"/><path d="M879.85 493.44L667.12 279.08 666.66 401H399a12 12 0 0 0-12 12v176a12 12 0 0 0 12 12h266.89l-.47 122.14 214.36-212.73a12 12 0 0 0 .07-16.97z" transform="translate(-269.5 -135.5)" stroke="#000" stroke-miterlimit="10" stroke-width=".5" fill="url(#b)"/></svg>