<svg width="800" height="600" fill="none" xmlns="http://www.w3.org/2000/svg"><path fill="#E5E5E5" d="M0 0h800v600H0z"/><path d="M496.614 397c0 106-86.6 192-193.5 192s-193.5-86-193.5-192 86.6-192 193.5-192 193.5 86 193.5 192z" stroke="#1AE02E" stroke-width="12"/><path d="M496.614 397c0 106-86.6 192-193.5 192s-193.5-86-193.5-192 86.6-192 193.5-192 193.5 86 193.5 192z" stroke="url(#paint0_linear)" stroke-width="12"/><path d="M480.514 396.5c0 97.4-79.6 176.4-177.9 176.4-98.3 0-177.9-79-177.9-176.4s79.6-176.4 177.9-176.4c98.3 0 177.9 79 177.9 176.4z" stroke="#628FC5" stroke-width="12"/><path d="M480.514 396.5c0 97.4-79.6 176.4-177.9 176.4-98.3 0-177.9-79-177.9-176.4s79.6-176.4 177.9-176.4c98.3 0 177.9 79 177.9 176.4z" stroke="url(#paint1_linear)" stroke-width="12"/><path d="M114.614 332.5c-53.5 161.2 89.1 268.4 198 262 10.6-240.4-190.5-169.3-198-262z" fill="#07A216"/><path d="M114.614 332.5c-53.5 161.2 89.1 268.4 198 262 10.6-240.4-190.5-169.3-198-262z" fill="url(#paint2_linear)"/><path d="M114.914 331c-7.5 120.4 128.5 213.1 197.7 262" stroke="#06D31B" stroke-width="3"/><path d="M248.014 278.4h-19v41h19v-41z" fill="#1AE02E"/><path d="M211.614 377.9c-3 1.7-5.3 3.1-6.7 4-.7.4-1.4.8-2.2 1.1l-6.3 2.3c-10.5 3.9-19.5-7.8-11.6-15.1l110.9-103.3c4.2-3.9 11.4-3.8 15.4.2l106.8 106.8c7.4 7.4-1.5 18.6-11.8 14.9l-16.1-5.9" stroke="#1AE02E" stroke-width="15"/><path d="M228.314 363h147.6c9 0 15.7 6.8 15.7 14.3v96.3c0 7.6-6.7 14.3-15.7 14.3h-147.6c-9 0-15.7-6.8-15.7-14.3v-96.3c0-7.5 6.7-14.3 15.7-14.3z" stroke="url(#paint3_linear)" stroke-width="11"/><path d="M277.414 422h-14.6v39.7h-9.8V422h-14.4v-7.9h38.8v7.9zm32.6 29.8h-17.2l-3.3 9.8h-10.4l17.7-47.6h9.1l17.8 47.6h-10.4l-3.3-9.8zm-14.6-7.9h11.9l-6-17.8-5.9 17.8zm52.3-1.7h-5.7v19.5h-9.8v-47.6h9.8v19.1h4.5l11.6-19.1h12l-14.6 22.5 16.2 25.1h-11.7l-12.3-19.5zm67.7-20.2h-14.6v39.7h-9.8V422h-14.4v-7.9h38.8v7.9zm38.2-8h9.8v47.6h-9.8V430l-19.1 31.6h-9.8V414h9.8v31.7l19.1-31.7zm37.9 28.2h-5.7v19.5h-9.8v-47.6h9.8v19.1h4.5l11.6-19.1h12l-14.6 22.5 16.2 25.1h-11.7l-12.3-19.5z" fill="#296CBB"/><defs><linearGradient id="paint0_linear" x1="503.277" y1="400.131" x2="87.777" y2="393.631" gradientUnits="userSpaceOnUse"><stop offset=".005" stop-color="#fff"/><stop offset=".568" stop-color="#fff" stop-opacity="0"/></linearGradient><linearGradient id="paint1_linear" x1="509.12" y1="401.806" x2="119.62" y2="391.806" gradientUnits="userSpaceOnUse"><stop offset=".073" stop-color="#fff"/><stop offset=".578" stop-color="#fff" stop-opacity="0"/></linearGradient><linearGradient id="paint2_linear" x1="54.702" y1="306.635" x2="311.421" y2="598.103" gradientUnits="userSpaceOnUse"><stop offset=".013" stop-color="#fff"/><stop offset=".621" stop-color="#fff" stop-opacity="0"/></linearGradient><linearGradient id="paint3_linear" x1="389.957" y1="439.778" x2="209.559" y2="410.457" gradientUnits="userSpaceOnUse"><stop stop-color="#fff"/><stop offset=".365" stop-color="#628FC5"/><stop offset=".464" stop-color="#628FC5"/></linearGradient></defs></svg>