<svg width="176" height="184" viewBox="0 0 176 184" fill="none" xmlns="http://www.w3.org/2000/svg">
<g filter="url(#filter0_dddd)">
<path fill-rule="evenodd" clip-rule="evenodd" d="M148.25 71.989L149.607 72.7724L163.25 80.6492L169.25 84.1133C171.917 85.6529 171.917 89.5019 169.25 91.0415L163.25 94.5056L149.607 102.382L148.25 103.166L45.5 162.489L44.143 163.272L30.5 171.149L24.5 174.613C21.8333 176.153 18.5 174.228 18.5 171.149V164.221V148.467V146.9V146.9C18.5 146.569 18.6767 146.263 18.9635 146.097L45.2682 130.91C45.3712 130.851 45.5 130.925 45.5 131.044V131.044C45.5 131.163 45.6288 131.237 45.7318 131.178L115.25 91.0415C117.917 89.5019 117.917 85.6529 115.25 84.1133L45.5823 43.8907C45.5458 43.8696 45.5 43.896 45.5 43.9382V43.9382C45.5 43.9805 45.4543 44.0069 45.4177 43.9858L18.6647 28.5399C18.5628 28.4811 18.5 28.3724 18.5 28.2547V28.2547L18.5 26.6878L18.5 10.9342L18.5 4.00597C18.5 0.926766 21.8333 -0.997735 24.5 0.541866L30.5 4.00597L44.143 11.8828L45.5 12.6662L148.25 71.989Z" fill="#FFFEFE"/>
<path d="M72 84.319C74.6667 85.8586 74.6667 89.7076 72 91.2472L25.5 118.094C22.8333 119.634 19.5 117.709 19.5 114.63L19.5 60.9363C19.5 57.8571 22.8333 55.9326 25.5 57.4722L72 84.319Z" fill="#FFFEFE"/>
</g>
<defs>
<filter id="filter0_dddd" x="14.5" y="0" width="160.75" height="183.155" filterUnits="userSpaceOnUse" color-interpolation-filters="sRGB">
<feFlood flood-opacity="0" result="BackgroundImageFix"/>
<feColorMatrix in="SourceAlpha" type="matrix" values="0 0 0 0 0 0 0 0 0 0 0 0 0 0 0 0 0 0 127 0"/>
<feOffset dy="4"/>
<feGaussianBlur stdDeviation="2"/>
<feColorMatrix type="matrix" values="0 0 0 0 0 0 0 0 0 0 0 0 0 0 0 0 0 0 0.25 0"/>
<feBlend mode="normal" in2="BackgroundImageFix" result="effect1_dropShadow"/>
<feColorMatrix in="SourceAlpha" type="matrix" values="0 0 0 0 0 0 0 0 0 0 0 0 0 0 0 0 0 0 127 0"/>
<feOffset dy="4"/>
<feGaussianBlur stdDeviation="2"/>
<feColorMatrix type="matrix" values="0 0 0 0 0 0 0 0 0 0 0 0 0 0 0 0 0 0 0.25 0"/>
<feBlend mode="normal" in2="effect1_dropShadow" result="effect2_dropShadow"/>
<feColorMatrix in="SourceAlpha" type="matrix" values="0 0 0 0 0 0 0 0 0 0 0 0 0 0 0 0 0 0 127 0"/>
<feOffset dy="4"/>
<feGaussianBlur stdDeviation="2"/>
<feColorMatrix type="matrix" values="0 0 0 0 0 0 0 0 0 0 0 0 0 0 0 0 0 0 0.25 0"/>
<feBlend mode="normal" in2="effect2_dropShadow" result="effect3_dropShadow"/>
<feColorMatrix in="SourceAlpha" type="matrix" values="0 0 0 0 0 0 0 0 0 0 0 0 0 0 0 0 0 0 127 0"/>
<feOffset dy="4"/>
<feGaussianBlur stdDeviation="2"/>
<feColorMatrix type="matrix" values="0 0 0 0 0 0 0 0 0 0 0 0 0 0 0 0 0 0 0.25 0"/>
<feBlend mode="normal" in2="effect3_dropShadow" result="effect4_dropShadow"/>
<feBlend mode="normal" in="SourceGraphic" in2="effect4_dropShadow" result="shape"/>
</filter>
</defs>
</svg>
