<svg width="176" height="184" viewBox="0 0 176 184" fill="none" xmlns="http://www.w3.org/2000/svg">
<g filter="url(#filter0_dddd)">
<path fill-rule="evenodd" clip-rule="evenodd" d="M27 71.989L25.643 72.7724L12 80.6492L6.00002 84.1133C3.33335 85.6529 3.33335 89.5019 6.00002 91.0415L12 94.5056L25.6431 102.382L27 103.166L129.75 162.489L131.107 163.272L144.75 171.149L150.75 174.613C153.417 176.153 156.75 174.228 156.75 171.149V164.221V148.467V146.9V146.9C156.75 146.569 156.573 146.263 156.286 146.097L129.982 130.91C129.879 130.851 129.75 130.925 129.75 131.044V131.044C129.75 131.163 129.621 131.237 129.518 131.178L60 91.0415C57.3334 89.5019 57.3334 85.6529 60 84.1133L129.668 43.8907C129.704 43.8696 129.75 43.896 129.75 43.9382V43.9382C129.75 43.9805 129.796 44.0069 129.832 43.9858L156.585 28.5399C156.687 28.4811 156.75 28.3724 156.75 28.2547V28.2547L156.75 26.6878L156.75 10.9342L156.75 4.00597C156.75 0.926766 153.417 -0.997735 150.75 0.541866L144.75 4.00597L131.107 11.8828L129.75 12.6662L27 71.989Z" fill="#FFFEFE"/>
<path d="M103.25 84.319C100.583 85.8586 100.583 89.7076 103.25 91.2472L149.75 118.094C152.417 119.634 155.75 117.709 155.75 114.63L155.75 60.9363C155.75 57.8571 152.417 55.9326 149.75 57.4722L103.25 84.319Z" fill="#FFFEFE"/>
</g>
<defs>
<filter id="filter0_dddd" x="1.52588e-05" y="0" width="160.75" height="183.155" filterUnits="userSpaceOnUse" color-interpolation-filters="sRGB">
<feFlood flood-opacity="0" result="BackgroundImageFix"/>
<feColorMatrix in="SourceAlpha" type="matrix" values="0 0 0 0 0 0 0 0 0 0 0 0 0 0 0 0 0 0 127 0"/>
<feOffset dy="4"/>
<feGaussianBlur stdDeviation="2"/>
<feColorMatrix type="matrix" values="0 0 0 0 0 0 0 0 0 0 0 0 0 0 0 0 0 0 0.25 0"/>
<feBlend mode="normal" in2="BackgroundImageFix" result="effect1_dropShadow"/>
<feColorMatrix in="SourceAlpha" type="matrix" values="0 0 0 0 0 0 0 0 0 0 0 0 0 0 0 0 0 0 127 0"/>
<feOffset dy="4"/>
<feGaussianBlur stdDeviation="2"/>
<feColorMatrix type="matrix" values="0 0 0 0 0 0 0 0 0 0 0 0 0 0 0 0 0 0 0.25 0"/>
<feBlend mode="normal" in2="effect1_dropShadow" result="effect2_dropShadow"/>
<feColorMatrix in="SourceAlpha" type="matrix" values="0 0 0 0 0 0 0 0 0 0 0 0 0 0 0 0 0 0 127 0"/>
<feOffset dy="4"/>
<feGaussianBlur stdDeviation="2"/>
<feColorMatrix type="matrix" values="0 0 0 0 0 0 0 0 0 0 0 0 0 0 0 0 0 0 0.25 0"/>
<feBlend mode="normal" in2="effect2_dropShadow" result="effect3_dropShadow"/>
<feColorMatrix in="SourceAlpha" type="matrix" values="0 0 0 0 0 0 0 0 0 0 0 0 0 0 0 0 0 0 127 0"/>
<feOffset dy="4"/>
<feGaussianBlur stdDeviation="2"/>
<feColorMatrix type="matrix" values="0 0 0 0 0 0 0 0 0 0 0 0 0 0 0 0 0 0 0.25 0"/>
<feBlend mode="normal" in2="effect3_dropShadow" result="effect4_dropShadow"/>
<feBlend mode="normal" in="SourceGraphic" in2="effect4_dropShadow" result="shape"/>
</filter>
</defs>
</svg>
