<svg xmlns="http://www.w3.org/2000/svg" height="512pt" version="1.1" viewBox="0 -1 512.00001 512" width="512pt">
<g id="surface1">
<path d="M 448.703125 63.296875 C 407.890625 22.480469 353.621094 0 295.898438 0 C 238.175781 0 183.90625 22.480469 143.089844 63.296875 C 102.273438 104.113281 79.792969 158.378906 79.792969 216.105469 C 79.792969 260.191406 92.921875 302.257812 117.304688 337.863281 L 11.675781 442.945312 C 4.148438 450.476562 0 460.488281 0 471.136719 C 0 481.785156 4.148438 491.792969 11.675781 499.324219 C 19.453125 507.097656 29.664062 510.984375 39.875 510.984375 C 50.074219 510.984375 60.269531 507.105469 68.023438 499.351562 L 173.59375 394.324219 C 209.3125 418.945312 251.582031 432.207031 295.898438 432.207031 C 353.621094 432.207031 407.886719 409.730469 448.703125 368.910156 C 489.519531 328.09375 512 273.828125 512 216.105469 C 512 158.382812 489.519531 104.113281 448.703125 63.296875 Z M 46.84375 478.113281 C 42.996094 481.960938 36.734375 481.957031 32.886719 478.113281 C 31.023438 476.25 29.996094 473.769531 29.996094 471.136719 C 29.996094 468.5 31.023438 466.023438 32.859375 464.1875 L 136.046875 361.527344 C 138.328125 364.035156 140.675781 366.496094 143.085938 368.910156 C 145.34375 371.167969 147.644531 373.355469 149.984375 375.5 Z M 427.492188 347.699219 C 354.933594 420.261719 236.863281 420.261719 164.296875 347.699219 C 91.734375 275.136719 91.734375 157.070312 164.296875 84.507812 C 199.449219 49.355469 246.1875 29.996094 295.894531 29.996094 C 345.605469 29.996094 392.339844 49.355469 427.492188 84.507812 C 500.058594 157.070312 500.058594 275.136719 427.492188 347.699219 Z M 427.492188 347.699219 " style=" stroke:none;fill-rule:nonzero;fill:rgb(0%,0%,0%);fill-opacity:1;" />
<path d="M 412.34375 99.660156 C 348.132812 35.449219 243.660156 35.453125 179.449219 99.660156 C 115.242188 163.867188 115.242188 268.339844 179.449219 332.550781 C 211.554688 364.652344 253.726562 380.707031 295.898438 380.707031 C 338.066406 380.707031 380.238281 364.652344 412.34375 332.550781 C 476.550781 268.339844 476.550781 163.867188 412.34375 99.660156 Z M 391.132812 311.339844 C 338.621094 363.851562 253.175781 363.851562 200.660156 311.339844 C 148.148438 258.824219 148.148438 173.382812 200.660156 120.871094 C 226.921875 94.609375 261.402344 81.484375 295.898438 81.484375 C 330.382812 81.484375 364.878906 94.617188 391.132812 120.871094 C 443.644531 173.382812 443.644531 258.824219 391.132812 311.339844 Z M 391.132812 311.339844 " style=" stroke:none;fill-rule:nonzero;fill:rgb(0%,0%,0%);fill-opacity:1;" />
</g>
</svg>