<svg width="63" height="63" viewBox="0 0 63 63" fill="none" xmlns="http://www.w3.org/2000/svg">
<circle cx="31.5" cy="31.5" r="31.5" fill="#88D6EF"/>
<path d="M51.0667 29.4677V21.4254C51.0667 20.8576 50.6064 20.3973 50.0386 20.3973V20.3973M51.0667 29.4677C51.0667 29.4677 45.4694 29.1254 43.8702 29.4677C42.271 29.81 39.0725 31.3302 39.0725 34.2596C39.0725 38.0247 42.3281 39.9072 43.8702 40.0783C45.4123 40.2495 49.9244 40.0783 51.0667 40.0783M51.0667 29.4677V40.0783M51.0667 40.0783V43.8064C51.0667 46.5679 48.8281 48.8064 46.0667 48.8064H17C14.2386 48.8064 12 46.5679 12 43.8064V21.7681C12 21.011 12.6137 20.3973 13.3708 20.3973V20.3973M18.3398 20.3973H30.6766M18.3398 20.3973L26.393 16.0472M18.3398 20.3973H13.3708M45.0696 20.3973H30.6766M45.0696 20.3973C44.5594 19.4145 43.6798 17.7648 42.7308 16.0472M45.0696 20.3973H50.0386M41.814 14.4075C41.574 13.9836 41.1753 13.2374 40.9573 12.8672C39.7125 10.7535 37.0545 10.8322 35.55 11.2063C35.2686 11.2763 35.0033 11.3962 34.7482 11.534L26.393 16.0472M41.814 14.4075L30.6766 20.3973M41.814 14.4075C42.1202 14.9481 42.429 15.5011 42.7308 16.0472M26.393 16.0472C26.393 16.0472 20.453 15.7381 18.8538 16.0472C17.2546 16.3563 13.9191 17.6591 13.3708 20.3973M42.7308 16.0472H45.5683C46.4753 16.0472 47.3876 16.2621 48.1138 16.8053C49.1408 17.5736 50.3207 18.8007 50.0386 20.3973" stroke="white" stroke-width="2"/>
<circle cx="44.7655" cy="34.9441" r="1.5" stroke="white" stroke-width="2.04086"/>
</svg>
