<svg width="63" height="63" viewBox="0 0 63 63" fill="none" xmlns="http://www.w3.org/2000/svg">
<circle cx="31.5" cy="31.5" r="31.5" fill="#88D6EF"/>
<path d="M41.8196 46.65V42.45C38.4334 45.25 32.4462 46.65 26.3609 46.65C20.2755 46.65 14.2392 45.25 11.0003 42.45V46.65C11.0003 49.45 17.9199 52 26.3609 52C34.8018 52 41.8196 49.55 41.8196 46.65Z" fill="white"/>
<path d="M41.8196 29.6C41.8196 26 34.9 23.15 26.3609 23.15C17.8217 23.15 10.9512 25.95 11.0003 29.6C11.0493 33.25 17.969 36.2 26.3609 36.2C34.7527 36.2 41.8196 33.2 41.8196 29.6Z" fill="white"/>
<path d="M51.9782 19.5V23.15C51.8964 24.2833 50.1624 26.77 43.8808 27.65C43.5372 26.6167 42.114 24.27 39.1695 23.15C47.7675 22.55 51.2911 20.4667 51.9782 19.5Z" fill="white"/>
<path d="M51.9782 27.4V31C52.1909 31.9667 50.9378 34.21 44.2243 35.45V30.35C46.2527 29.9833 50.6433 28.88 51.9782 27.4Z" fill="white"/>
<path d="M41.8196 34.55V38.75C41.8196 41.65 34.8018 44.1 26.3609 44.1C17.9199 44.1 11.0003 41.55 11.0003 38.75V34.55C14.2392 37.35 20.2755 38.75 26.3609 38.75C32.4462 38.75 38.4334 37.35 41.8196 34.55Z" fill="white"/>
<path d="M36.6667 10C45.0586 10 51.9782 12.45 51.9782 15.3C51.9782 18.15 45.0586 20.5 36.6667 20.5C27.9803 20.5 21.2079 18.15 21.2079 15.3C21.2079 12.45 28.1766 10 36.6667 10Z" fill="white"/>
</svg>
