<svg width="63" height="63" viewBox="0 0 63 63" fill="none" xmlns="http://www.w3.org/2000/svg">
<circle cx="31.5" cy="31.5" r="31.5" fill="#88D6EF"/>
<path d="M47.3233 11.6525C44.0971 9.79052 39.6498 9.71204 35.7191 11.4482C32.082 13.0555 29.4602 16.597 27.9104 19.2585C27.2128 19.0884 26.4663 19.4201 26.1424 20.0951C25.8325 20.7406 26.0135 21.4896 26.5292 21.937C26.3879 22.2517 26.3016 22.4629 26.269 22.5452L18.7416 39.0792C17.9826 38.7295 17.0783 39.0411 16.7039 39.7954C16.3225 40.5636 16.6356 41.4959 17.4038 41.878L17.4551 41.9037L15.7617 45.6255H11.5537C10.696 45.6255 10 46.3215 10 47.1791C10 48.0367 10.696 48.7328 11.5537 48.7328H19.3219C20.1795 48.7328 20.8756 48.0367 20.8756 47.1791C20.8756 46.3215 20.1795 45.6255 19.3219 45.6255H19.1758L20.2533 43.2585C20.3954 43.2997 20.5392 43.3276 20.6829 43.3276C21.2538 43.3276 21.8038 43.0114 22.0757 42.4654C22.4316 41.7492 22.1783 40.8969 21.5211 40.4743L29.3212 23.3415C29.5317 23.4386 29.7516 23.4869 29.9698 23.4869C30.5486 23.4869 31.104 23.1622 31.3713 22.6051C31.727 21.8648 31.438 20.987 30.7342 20.5877C32.0633 18.3481 34.1911 15.5212 36.976 14.2907C39.9699 12.9678 43.4221 12.988 45.7704 14.3435C47.4974 15.3402 48.4894 16.9257 48.7208 19.0573C49.1543 23.0494 48.7868 25.7263 47.6317 27.015C47.5252 27.1339 47.408 27.2357 47.2884 27.3319V30.8098C48.2454 30.4866 49.1644 29.9592 49.9443 29.09C51.7403 27.0896 52.35 23.698 51.8102 18.7224C51.4763 15.6392 49.8822 13.1285 47.3233 11.6525Z" fill="white"/>
<path d="M42.8985 37.8572C43.9123 37.8572 44.8709 38.0879 45.734 38.4903V31.1719V28.0196V26.2049C45.734 25.3465 45.8155 25.4281 44.9572 25.4281H41.9144C41.056 25.4281 32.3982 26.1405 30.1113 37.4455L28.6438 46.7907C28.6438 47.649 29.3391 48.7327 30.1974 48.7327H37.5703C36.6831 47.59 36.1495 46.1607 36.1495 44.6062C36.1495 40.8844 39.1776 37.8572 42.8985 37.8572Z" fill="white"/>
<path d="M46.5108 40.8805C46.2723 40.6498 46.0129 40.4417 45.7341 40.2592C44.9176 39.7247 43.9442 39.4109 42.8987 39.4109C40.0337 39.4109 37.7032 41.7414 37.7032 44.6063C37.7032 46.2889 38.5111 47.7835 39.7557 48.7328C40.1892 49.0637 40.6746 49.327 41.199 49.5096C41.7327 49.6952 42.3029 49.8009 42.8987 49.8009C43.4946 49.8009 44.0648 49.6952 44.5984 49.5096C45.1485 49.3184 45.6573 49.038 46.1063 48.6846C46.5289 48.3521 46.901 47.9583 47.2032 47.5124C47.7656 46.6819 48.095 45.6814 48.095 44.6055C48.095 43.5879 47.7967 42.6409 47.2895 41.8392C47.0662 41.4896 46.8068 41.1673 46.5108 40.8805ZM42.8986 42.0001C44.3373 42.0001 45.5041 43.1668 45.5041 44.6055C45.5041 46.0442 44.3373 47.211 42.8986 47.211C41.4599 47.211 40.2932 46.0442 40.2932 44.6055C40.2932 43.1668 41.4591 42.0001 42.8986 42.0001Z" fill="white"/>
</svg>
