<svg width="63" height="63" viewBox="0 0 63 63" fill="none" xmlns="http://www.w3.org/2000/svg">
<circle cx="31.5" cy="31.5" r="31.5" fill="#88D6EF"/>
<path fill-rule="evenodd" clip-rule="evenodd" d="M41.1725 10C41.6549 10 42.089 10.4325 42.089 10.913V15.1899H46.0445C48.2152 15.238 50 17.016 50 19.2265V48.1555C50 50.27 48.2635 51.9999 46.141 51.9999C43.7842 51.9999 25.7687 51.9519 17.0537 51.9999C14.8348 52.0122 13.05 50.27 13.05 48.1555C13.05 45.0683 12.9375 27.5881 13.05 19.2265C13.05 16.968 14.8348 15.1899 17.0055 15.238H21.0092V10.913C21.0092 10.3845 21.4434 10 21.8775 10H25.2541C25.5436 10.016 26.2671 10.3845 26.2671 10.913V15.238L36.8311 15.1899V10.913C36.8311 10.4806 37.217 10 37.7477 10H41.1725ZM46.0445 47.627V23.119H17.0537V47.627C17.0537 47.9633 17.2467 48.1075 17.5361 48.1075H45.5621C45.8998 48.1075 46.0445 47.9153 46.0445 47.627Z" fill="white"/>
<path d="M39.3395 28.3089L41.2208 30.2311C41.4298 30.3913 41.7224 30.8846 41.2208 31.5766L29.4508 43.2059C29.0649 43.5423 28.4378 43.5423 28.1001 43.2059L21.8775 36.9588C21.6685 36.7025 21.3758 36.065 21.8775 35.5652L23.7105 33.7391C23.9356 33.4988 24.5306 33.1624 25.1094 33.7391L28.7755 37.3432L37.9406 28.3089C38.1718 28.0686 38.7751 27.7323 39.3395 28.3089Z" fill="white"/>
</svg>
