<svg width="12" height="13" viewBox="0 0 12 13" fill="none" xmlns="http://www.w3.org/2000/svg">
<path d="M8.96547 9.2137C9.08349 9.28535 9.23726 9.24777 9.30891 9.12974C9.38057 9.01172 9.34298 8.85796 9.22496 8.7863L8.96547 9.2137ZM5.89163 6.76249C5.7736 6.69084 5.61984 6.72842 5.54818 6.84645C5.47653 6.96447 5.51412 7.11823 5.63214 7.18989L5.89163 6.76249ZM9.22496 8.7863L5.89163 6.76249L5.63214 7.18989L8.96547 9.2137L9.22496 8.7863Z" fill="black"/>
<path d="M7.9619 1.88359L6.11905 0.666656V1.47794V2.39064L7.9619 1.88359Z" fill="white"/>
<path d="M7.9619 1.88359L8.09455 2.36567C8.28369 2.31363 8.42493 2.15579 8.45571 1.96204C8.48649 1.7683 8.40113 1.57445 8.23743 1.46635L7.9619 1.88359ZM6.11905 0.666656L6.39457 0.249419C6.24102 0.148024 6.04419 0.139158 5.88215 0.226338C5.72011 0.313517 5.61905 0.482652 5.61905 0.666656H6.11905ZM6.11905 2.39064H5.61905C5.61905 2.54668 5.69189 2.69376 5.816 2.78834C5.94011 2.88291 6.10125 2.91412 6.25169 2.87273L6.11905 2.39064ZM10.6911 3.3095C10.5295 3.08561 10.2169 3.03515 9.99303 3.1968C9.76914 3.35844 9.71869 3.67098 9.88033 3.89487L10.6911 3.3095ZM10.7381 6.54849C10.7381 9.06826 8.67458 11.119 6.11905 11.119V12.119C9.21786 12.119 11.7381 9.6295 11.7381 6.54849H10.7381ZM6.11905 11.119C3.56352 11.119 1.5 9.06826 1.5 6.54849H0.5C0.5 9.6295 3.02023 12.119 6.11905 12.119V11.119ZM1.5 6.54849C1.5 4.02872 3.56352 1.97794 6.11905 1.97794V0.977944C3.02023 0.977944 0.5 3.46749 0.5 6.54849H1.5ZM8.23743 1.46635L6.39457 0.249419L5.84352 1.08389L7.68638 2.30083L8.23743 1.46635ZM5.61905 0.666656V1.47794H6.61905V0.666656H5.61905ZM6.25169 2.87273L8.09455 2.36567L7.82926 1.4015L5.9864 1.90856L6.25169 2.87273ZM6.61905 2.39064V1.47794H5.61905V2.39064H6.61905ZM9.88033 3.89487C10.4206 4.64321 10.7381 5.5586 10.7381 6.54849H11.7381C11.7381 5.34086 11.3499 4.22198 10.6911 3.3095L9.88033 3.89487Z" fill="black"/>
<path d="M7.08742 5.17493C7.18403 4.91624 7.05264 4.62821 6.79395 4.5316C6.53526 4.43499 6.24723 4.56638 6.15062 4.82507L7.08742 5.17493ZM6.34938 7.15112L7.08742 5.17493L6.15062 4.82507L5.41258 6.80126L6.34938 7.15112Z" fill="black"/>
</svg>
