<svg width="63" height="63" viewBox="0 0 63 63" fill="none" xmlns="http://www.w3.org/2000/svg">
<circle cx="31.5" cy="31.5" r="31.5" fill="#88D6EF"/>
<path d="M43.481 42.8548C43.9531 43.1414 44.5682 42.9911 44.8548 42.519C45.1414 42.0469 44.9911 41.4318 44.519 41.1452L43.481 42.8548ZM30.519 32.6452C30.0469 32.3586 29.4318 32.5089 29.1452 32.981C28.8586 33.4531 29.0089 34.0682 29.481 34.3548L30.519 32.6452ZM44.519 41.1452L30.519 32.6452L29.481 34.3548L43.481 42.8548L44.519 41.1452Z" fill="white"/>
<path d="M39.24 12.1111L31.5 7V10.4074V14.2407L39.24 12.1111Z" fill="white"/>
<path d="M39.24 12.1111L39.6379 13.5574C40.2054 13.4012 40.6291 12.9277 40.7214 12.3465C40.8138 11.7652 40.5577 11.1837 40.0666 10.8594L39.24 12.1111ZM31.5 7L32.3266 5.74829C31.8659 5.4441 31.2754 5.41751 30.7893 5.67904C30.3032 5.94058 30 6.44799 30 7H31.5ZM31.5 14.2407H30C30 14.7088 30.2185 15.1501 30.5909 15.4338C30.9632 15.7175 31.4466 15.8112 31.8979 15.687L31.5 14.2407ZM50.2161 18.4512C49.7312 17.7795 48.7936 17.6281 48.1219 18.1131C47.4503 18.598 47.2989 19.5356 47.7839 20.2073L50.2161 18.4512ZM51.5 31.7037C51.5 42.6235 42.5592 51.5 31.5 51.5V54.5C44.1891 54.5 54.5 44.3072 54.5 31.7037H51.5ZM31.5 51.5C20.4408 51.5 11.5 42.6235 11.5 31.7037H8.5C8.5 44.3072 18.8109 54.5 31.5 54.5V51.5ZM11.5 31.7037C11.5 20.7839 20.4408 11.9074 31.5 11.9074V8.90741C18.8109 8.90741 8.5 19.1002 8.5 31.7037H11.5ZM40.0666 10.8594L32.3266 5.74829L30.6734 8.25171L38.4134 13.3628L40.0666 10.8594ZM30 7V10.4074H33V7H30ZM31.8979 15.687L39.6379 13.5574L38.8421 10.6649L31.1021 12.7945L31.8979 15.687ZM33 14.2407V10.4074H30V14.2407H33ZM47.7839 20.2073C50.1242 23.4488 51.5 27.4155 51.5 31.7037H54.5C54.5 26.7623 52.912 22.1851 50.2161 18.4512L47.7839 20.2073Z" fill="white"/>
<path d="M32 21C32 20.1716 31.3284 19.5 30.5 19.5C29.6716 19.5 29 20.1716 29 21L32 21ZM32 33.5L32 21L29 21L29 33.5L32 33.5Z" fill="white"/>
</svg>
