<svg width="63" height="63" viewBox="0 0 63 63" fill="none" xmlns="http://www.w3.org/2000/svg">
<circle cx="31.5" cy="31.5" r="31.5" fill="#88D6EF"/>
<path d="M34.6006 24H34.5233H28.4767H28.3994C21.8812 26.7793 17 37.8146 17 46.5117C17 56.5416 23.4919 55.9947 31.5 55.9947C39.5081 55.9947 46 56.5416 46 46.5117C46.0001 37.8146 41.1189 26.7793 34.6006 24ZM20.7282 42.9396C20.9983 42.6588 21.3647 42.4229 21.5976 42.1139C22.2984 41.3916 22.5428 40.4118 22.1557 39.4686C21.8387 38.6963 21.3026 38.0813 22.0063 37.3586C22.1628 37.1978 22.3328 37.0492 22.4968 36.8963C22.8776 36.5414 23.2533 36.1342 23.4668 35.6555C23.78 34.9532 23.788 34.2191 23.4809 33.5987C24.1877 32.3808 25.0347 31.3109 26.0368 30.5076V51.1094C26.0368 51.1094 22.2628 51.3858 20.9158 48.09C21.1287 47.405 21.4973 46.7284 21.5133 45.9857C21.5307 45.1693 21.0166 44.4535 20.7308 43.7105C20.6338 43.4586 20.5574 43.1493 20.7282 42.9396Z" fill="white"/>
<path d="M45 12.6006V9.3995C45 8.62658 44.405 8 43.671 8H42V14H43.671C44.405 14.0001 45 13.3735 45 12.6006Z" fill="white"/>
<path d="M38.548 17.0197C38.095 17.5139 37.6954 18.1637 37.3578 18.9583C37.2361 19.2447 37.1301 19.5327 37.0374 19.8145C37.0097 19.9522 37 20.0325 37 20.0325C37.6568 20.0325 39.7092 20.8215 41.0229 23.8897C42.3364 26.958 45.2509 26.3004 43.4037 24.328C41.5565 22.3556 40.6123 16 40.6123 16C39.7279 16.1695 39.0567 16.5532 38.548 17.0197Z" fill="white"/>
<path d="M30.9799 8C29.1989 8 25.4453 8.74979 22.1365 13.0601C21.8438 13.4414 22.0453 13.9963 22.5174 14.1031C24.2045 14.4849 27.3518 16.0012 27.3518 22H34.6079C34.6079 22 35.299 14.1464 41 14.1464V14.061V8H40.9606C40.3594 8 32.8043 8 30.9799 8Z" fill="white"/>
</svg>
