<?xml version="1.0" encoding="utf-8"?>
<!-- Generator: Adobe Illustrator 23.0.2, SVG Export Plug-In . SVG Version: 6.00 Build 0)  -->
<svg version="1.1" id="Capa_1" xmlns="http://www.w3.org/2000/svg" xmlns:xlink="http://www.w3.org/1999/xlink" x="0px" y="0px"
	 viewBox="0 0 410.6 410.6" style="enable-background:new 0 0 410.6 410.6;" xml:space="preserve">
<style type="text/css">
	.st0{fill:#FFFFFF;}
</style>
<g>
	<path class="st0" d="M410.6,371.4l-50-50l-39.9-39.9c20.5-28.8,32.7-64,32.7-102C353.4,82,274.1,2.7,176.7,2.7
		C79.3,2.7,0,82,0,179.4c0,97.4,79.3,176.7,176.7,176.7c40.7,0,78.1-14,108-37.2l68.5,68.5c0.8,0.8,1.8,1.5,2.7,2.2l18.2,18.2
		L410.6,371.4z M176.7,314.5c-74.5,0-135.1-60.6-135.1-135.1c0-74.5,60.6-135.1,135.1-135.1c74.5,0,135.1,60.6,135.1,135.1
		c0,31-10.6,59.5-28.2,82.3c-5.8,7.5-12.4,14.5-19.6,20.7C240.4,302.4,209.9,314.5,176.7,314.5z"/>
</g>
</svg>
